<?xml version="1.0" standalone="no"?>
<!DOCTYPE svg PUBLIC "-//W3C//DTD SVG 20010904//EN"
 "http://www.w3.org/TR/2001/REC-SVG-20010904/DTD/svg10.dtd">
<svg version="1.0" xmlns="http://www.w3.org/2000/svg"
 width="259.000000pt" height="256.000000pt" viewBox="0 0 259.000000 256.000000"
 preserveAspectRatio="xMidYMid meet">

<g transform="translate(0.000000,256.000000) scale(0.100000,-0.100000)"
fill="#000000" stroke="none">
<path d="M803 2186 c-244 -88 -443 -164 -443 -167 0 -3 29 -19 65 -35 35 -16
65 -35 65 -43 0 -31 -55 -247 -67 -262 -7 -8 -13 -21 -13 -28 0 -7 -21 -51
-46 -97 -50 -92 -85 -181 -77 -200 2 -7 21 -19 41 -27 36 -14 37 -14 49 12
l12 26 -5 -27 c-9 -41 22 -37 40 5 l14 32 1 -33 c1 -22 5 -32 14 -29 13 4 16
130 5 287 -5 72 -1 104 24 210 16 69 31 126 32 128 2 1 171 -77 376 -173 l374
-176 479 227 c290 138 473 230 465 235 -22 12 -939 299 -951 298 -7 -1 -211
-74 -454 -163z"/>
<path d="M700 1646 l0 -183 72 -7 c290 -27 708 -27 991 0 l67 7 0 183 c0 101
-2 184 -6 184 -3 0 -129 -59 -281 -130 l-276 -131 -36 15 c-20 8 -146 66 -280
130 -135 64 -246 116 -248 116 -2 0 -3 -83 -3 -184z"/>
<path d="M810 951 c-47 -25 -71 -61 -77 -112 -6 -58 20 -107 72 -136 69 -39
146 -25 198 36 39 46 39 126 0 172 -49 58 -128 75 -193 40z"/>
<path d="M1606 947 c-43 -24 -76 -76 -76 -120 0 -50 37 -107 83 -128 54 -24
91 -24 143 2 31 15 48 32 63 63 26 52 26 69 2 123 -35 77 -137 105 -215 60z"/>
</g>
</svg>
