<?xml version="1.0" encoding="UTF-8"?>
<svg version="1.1" xmlns="http://www.w3.org/2000/svg" width="259" height="256">
<path d="M0 0 C35.96889756 -0.93669004 69.6330476 12.66062003 95.625 37.12890625 C96.22828125 37.66773438 96.8315625 38.2065625 97.453125 38.76171875 C118.49688754 58.33045121 129.74971458 90.49789174 131.53515625 118.5859375 C131.57962891 119.84470703 131.57962891 119.84470703 131.625 121.12890625 C131.66496094 122.10214844 131.70492188 123.07539062 131.74609375 124.078125 C132.47149618 158.76942944 120.25051944 192.87026191 96.48510742 218.31323242 C72.69176794 242.85719732 39.87751485 255.77606167 5.93554688 256.41235352 C-31.38798019 256.71689957 -64.54326745 244.87664952 -91.875 219.00390625 C-115.8535813 194.25320606 -127.54328441 158.83471422 -127.41015625 124.75390625 C-126.6231287 95.75994758 -116.78376687 67.56162044 -98.375 45.12890625 C-97.67761719 44.278125 -96.98023437 43.42734375 -96.26171875 42.55078125 C-74.18760708 16.88508651 -42.09674653 3.34772926 -8.75 0.50390625 C-5.8340348 0.31478115 -2.91771438 0.15836279 0 0 Z " fill="#E8EFF8" transform="translate(127.375,-0.12890625)"/>
<path d="M0 0 C35.96889756 -0.93669004 69.6330476 12.66062003 95.625 37.12890625 C96.22828125 37.66773438 96.8315625 38.2065625 97.453125 38.76171875 C118.49688754 58.33045121 129.74971458 90.49789174 131.53515625 118.5859375 C131.57962891 119.84470703 131.57962891 119.84470703 131.625 121.12890625 C131.66496094 122.10214844 131.70492188 123.07539062 131.74609375 124.078125 C132.28601689 149.89915529 125.51624308 174.85527916 112.625 197.12890625 C112.295 197.12890625 111.965 197.12890625 111.625 197.12890625 C111.53001221 196.54101318 111.43502441 195.95312012 111.3371582 195.34741211 C107.45454114 171.71759728 101.09702771 148.60093396 83.625 131.12890625 C83.4921875 129.2734375 83.4921875 129.2734375 83.5 126.94140625 C83.49742187 126.18472656 83.49484375 125.42804688 83.4921875 124.6484375 C83.625 122.12890625 83.625 122.12890625 84.09765625 119.4765625 C84.81651634 114.91313216 84.98686226 110.36528505 85.1875 105.75390625 C85.25227539 104.36365234 85.25227539 104.36365234 85.31835938 102.9453125 C85.42376186 100.67330331 85.52588606 98.401197 85.625 96.12890625 C86.24568359 95.94207275 86.86636719 95.75523926 87.50585938 95.56274414 C88.31861328 95.3074292 89.13136719 95.05211426 89.96875 94.7890625 C90.77505859 94.540354 91.58136719 94.29164551 92.41210938 94.03540039 C96.20595609 92.48127938 97.85517803 89.66855019 99.625 86.12890625 C100.17144038 81.14823652 100.16704675 77.23307555 97.9375 72.69140625 C94.30821659 68.66976788 92.1349642 67.29668005 86.6875 66.69140625 C82.39597319 66.87764232 79.8724659 68.25905266 76.625 71.12890625 C73.37377426 75.89737067 73.17457769 79.54366957 73.625 85.12890625 C74.26154342 86.47688055 74.92105388 87.81487349 75.625 89.12890625 C75.32935701 93.40649074 72.65148112 95.24332783 69.5625 97.94140625 C68.18384766 99.15763672 68.18384766 99.15763672 66.77734375 100.3984375 C66.27267578 100.82326416 65.76800781 101.24809082 65.24804688 101.68579102 C63.56261747 103.1379943 63.56261747 103.1379943 61.93945312 104.94506836 C56.05339341 110.94999913 50.42373886 111.52429971 42.25 112.06640625 C40.87573011 112.17461256 39.50146262 112.28284933 38.12719727 112.39111328 C10.72631565 114.36376114 -17.31831838 114.35863586 -44.6875 111.94140625 C-45.93088135 111.84069824 -47.1742627 111.73999023 -48.45532227 111.63623047 C-56.54227092 110.77533745 -56.54227092 110.77533745 -60.2734375 107.87890625 C-60.96695313 106.97140625 -61.66046875 106.06390625 -62.375 105.12890625 C-63.39437267 104.14465552 -64.43344045 103.18051507 -65.48828125 102.234375 C-66.01357422 101.75419922 -66.53886719 101.27402344 -67.08007812 100.77929688 C-67.61052734 100.29654297 -68.14097656 99.81378906 -68.6875 99.31640625 C-69.23728516 98.81431641 -69.78707031 98.31222656 -70.35351562 97.79492188 C-71.69305239 96.57186657 -73.03388992 95.35023617 -74.375 94.12890625 C-73.86896008 91.96016373 -73.37516187 90.12922998 -72.375 88.12890625 C-71.84697912 83.31612581 -71.51859105 78.7396742 -74.25 74.56640625 C-76.13784333 72.08901999 -76.13784333 72.08901999 -78.375 71.12890625 C-78.560625 72.92328125 -78.560625 72.92328125 -78.75 74.75390625 C-79.06987511 77.41026045 -79.48248615 79.41342841 -80.4375 81.94140625 C-82.09549342 87.57858386 -81.78252006 93.47836925 -80.89453125 99.25390625 C-80.20381259 104.40573267 -79.99414935 109.49848058 -79.875 114.69140625 C-79.82085937 115.70654297 -79.76671875 116.72167969 -79.7109375 117.76757812 C-79.57685676 125.0989214 -79.57685676 125.0989214 -81.81054688 127.98144531 C-83.625 129.4921875 -83.625 129.4921875 -85.55273438 130.84643555 C-101.15367349 141.82603538 -108.70254466 166.45685586 -111.9296875 184.41015625 C-112.07664062 185.30734375 -112.22359375 186.20453125 -112.375 187.12890625 C-126.23857384 170.79704033 -128.57318463 138.88407417 -127.10131836 118.57763672 C-124.56111418 91.47152807 -115.73643081 66.28534861 -98.375 45.12890625 C-97.67761719 44.278125 -96.98023437 43.42734375 -96.26171875 42.55078125 C-74.18760708 16.88508651 -42.09674653 3.34772926 -8.75 0.50390625 C-5.8340348 0.31478115 -2.91771438 0.15836279 0 0 Z " fill="#FCD295" transform="translate(127.375,-0.12890625)"/>
<path d="M0 0 C0.99976868 -0.00700928 1.99953735 -0.01401855 3.02960205 -0.02124023 C6.30387923 -0.03871176 9.57727795 -0.02723574 12.8515625 -0.01367188 C15.1450212 -0.01636989 17.43847878 -0.02025489 19.73193359 -0.02526855 C24.52647854 -0.03114895 29.32072435 -0.02264747 34.11523438 -0.00390625 C40.24160579 0.01888198 46.3672761 0.00575111 52.49362183 -0.01819611 C57.2258832 -0.03269336 61.95798008 -0.02803003 66.69024658 -0.01768494 C68.94834477 -0.01502852 71.2064582 -0.01824895 73.46453857 -0.02760315 C76.62779958 -0.03783333 79.78994635 -0.02217673 82.953125 0 C83.8739386 -0.00809692 84.7947522 -0.01619385 85.74346924 -0.02453613 C95.67291924 0.10355334 104.20236567 3.76072719 111.4765625 10.51757812 C119.54918171 19.01998956 122.06063446 28.72206235 121.87890625 40.16967773 C121.4027183 52.29217843 118.28783193 62.34743625 109.2265625 70.76757812 C100.81368479 77.26349166 90.79673055 80.27798153 80.80004883 83.4296875 C78.54434201 84.14091349 76.29246385 84.86330914 74.04101562 85.58789062 C69.86179626 86.92737147 65.67220932 88.23059653 61.4765625 89.51757812 C60.40905762 89.84854492 59.34155273 90.17951172 58.24169922 90.52050781 C57.30729004 90.79540039 56.37288086 91.07029297 55.41015625 91.35351562 C54.63599365 91.58345215 53.86183105 91.81338867 53.06420898 92.05029297 C50.4765625 92.51757812 50.4765625 92.51757812 42.4765625 92.51757812 C42.4765625 86.24757813 42.4765625 79.97757812 42.4765625 73.51757812 C41.0853418 73.53328857 39.69412109 73.54899902 38.26074219 73.56518555 C33.04986466 73.61989583 27.83901202 73.65407655 22.62792969 73.68237305 C20.38179236 73.69736664 18.13568384 73.71776833 15.88964844 73.74389648 C12.64250535 73.78069744 9.39575265 73.79739928 6.1484375 73.81054688 C4.66642853 73.83377266 4.66642853 73.83377266 3.15447998 73.85746765 C-9.09596803 73.86035891 -19.45848043 71.16200203 -28.4921875 62.66601562 C-36.43103278 54.22258272 -38.88372532 45.02145494 -38.73046875 33.63867188 C-38.07342839 23.73347852 -33.76365663 15.58384807 -26.640625 8.69726562 C-18.65023653 2.2596652 -10.11064826 -0.08890523 0 0 Z " fill="#FEFEFE" transform="translate(86.5234375,138.482421875)"/>
<path d="M0 0 C0.73669922 0.23654297 1.47339844 0.47308594 2.23242188 0.71679688 C3.00650391 0.97138672 3.78058594 1.22597656 4.578125 1.48828125 C6.27078555 2.03400241 7.96349527 2.57957107 9.65625 3.125 C10.94499023 3.54338135 10.94499023 3.54338135 12.25976562 3.97021484 C16.27568402 5.26889872 20.30206858 6.53395456 24.328125 7.80078125 C25.91151497 8.30060186 27.49484818 8.80060232 29.078125 9.30078125 C29.861875 9.54828125 30.645625 9.79578125 31.453125 10.05078125 C38.578125 12.30078125 38.578125 12.30078125 40.9543457 13.05126953 C42.5335313 13.54989133 44.11279533 14.0482648 45.69213867 14.54638672 C49.71462041 15.81542099 53.73553707 17.0890918 57.75390625 18.37109375 C59.38274014 18.88955031 61.01164557 19.40778216 62.640625 19.92578125 C63.42421387 20.17553711 64.20780273 20.42529297 65.01513672 20.68261719 C71.08093408 22.60135082 77.18290041 24.32143805 83.3359375 25.94140625 C85.828125 26.80078125 85.828125 26.80078125 86.828125 28.80078125 C70.02049369 37.00934391 53.19301121 45.15229388 36.20410156 52.98046875 C27.36847226 57.0611913 18.58876933 61.2496762 9.828125 65.48828125 C9.19821655 65.79300354 8.56830811 66.09772583 7.91931152 66.41168213 C1.24278504 69.52444364 1.24278504 69.52444364 -5.21875 73.03833008 C-9.07560475 74.54394975 -12.04173505 72.85673881 -15.68823242 71.28881836 C-17.05399113 70.64096049 -18.41686149 69.98699121 -19.77734375 69.328125 C-20.52247726 68.97294296 -21.26761078 68.61776093 -22.0353241 68.2518158 C-24.47912418 67.08568765 -26.91918667 65.91194571 -29.359375 64.73828125 C-31.0506409 63.92986687 -32.74221356 63.12209396 -34.43408203 62.31494141 C-37.04542273 61.06903179 -39.6565587 59.82271208 -42.26672363 58.57434082 C-51.34134675 54.23484976 -60.44249323 49.95238928 -69.546875 45.67578125 C-71.03413306 44.97655502 -72.52135734 44.27725695 -74.00854492 43.57788086 C-77.39604709 41.98492985 -80.78385538 40.39263146 -84.171875 38.80078125 C-84.31681396 39.8774707 -84.46175293 40.95416016 -84.61108398 42.06347656 C-85.09877498 45.31361752 -85.80899571 48.38257631 -86.68286133 51.54711914 C-88.9668173 59.84478477 -90.07414529 67.33247645 -88.65625 75.92578125 C-88.03642836 80.88435436 -88.0650292 85.74767272 -88.109375 90.73828125 C-88.11388672 91.70830078 -88.11839844 92.67832031 -88.12304688 93.67773438 C-88.1347435 96.05214885 -88.15113414 98.42643146 -88.171875 100.80078125 C-89.656875 101.29578125 -89.656875 101.29578125 -91.171875 101.80078125 C-91.666875 99.32578125 -91.666875 99.32578125 -92.171875 96.80078125 C-92.501875 98.45078125 -92.831875 100.10078125 -93.171875 101.80078125 C-94.491875 101.80078125 -95.811875 101.80078125 -97.171875 101.80078125 C-97.171875 100.81078125 -97.171875 99.82078125 -97.171875 98.80078125 C-97.666875 99.79078125 -97.666875 99.79078125 -98.171875 100.80078125 C-101.88786691 101.00164568 -102.94395945 100.95272495 -106.171875 98.80078125 C-106.96304513 92.85591413 -105.24510881 89.09573023 -102.484375 84.05078125 C-101.74717067 82.64402846 -101.0114977 81.23647212 -100.27734375 79.828125 C-99.91688965 79.14476074 -99.55643555 78.46139648 -99.18505859 77.75732422 C-95.31650907 70.28682883 -91.63471321 62.5336244 -89.8828125 54.28125 C-89.66367188 53.25966797 -89.44453125 52.23808594 -89.21875 51.18554688 C-88.88617188 49.60290039 -88.88617188 49.60290039 -88.546875 47.98828125 C-88.31742188 46.91384766 -88.08796875 45.83941406 -87.8515625 44.73242188 C-87.28770854 42.08935642 -86.72795369 39.44549151 -86.171875 36.80078125 C-86.95071045 36.65584229 -87.7295459 36.51090332 -88.53198242 36.36157227 C-91.15780915 35.80376925 -93.11801047 34.98162533 -95.484375 33.73828125 C-96.18175781 33.37605469 -96.87914062 33.01382813 -97.59765625 32.640625 C-98.11714844 32.36347656 -98.63664062 32.08632813 -99.171875 31.80078125 C-99.171875 31.14078125 -99.171875 30.48078125 -99.171875 29.80078125 C-97.35828491 29.14613892 -97.35828491 29.14613892 -95.50805664 28.47827148 C-91.85080671 27.15796605 -88.19389439 25.8367292 -84.53710938 24.51513672 C-80.30878847 22.98706457 -76.07948887 21.46174028 -71.84960938 19.93798828 C-61.26476156 16.12035523 -50.69728244 12.26532451 -40.16796875 8.296875 C-37.3892705 7.25600611 -34.61019232 6.21615767 -31.83102417 5.17654419 C-30.066274 4.51238567 -28.30364208 3.84256971 -26.54324341 3.16696167 C-24.09115573 2.22617728 -21.63257209 1.30470042 -19.171875 0.38671875 C-18.46030746 0.10738998 -17.74873993 -0.17193878 -17.01560974 -0.45973206 C-10.9088325 -2.70203529 -6.04548256 -1.96913055 0 0 Z " fill="#222253" transform="translate(135.171875,23.19921875)"/>
<path d="M0 0 C4.55973 1.51991 8.48916561 3.10139345 12.76953125 5.1953125 C13.72088959 5.65875565 13.72088959 5.65875565 14.69146729 6.13156128 C16.03936351 6.78850578 17.3865059 7.44699896 18.73294067 8.10693359 C20.8273111 9.1322509 22.92472812 10.15106109 25.02319336 11.16796875 C30.90027397 14.01747792 36.77089832 16.87666289 42.609375 19.8046875 C43.3830542 20.18608887 44.1567334 20.56749023 44.95385742 20.96044922 C46.30946808 21.62875884 47.65922656 22.30914659 49.0012207 23.00439453 C53.18718862 25.04725228 55.52333986 25.06674866 60 24 C62.53309895 22.95640315 64.96631085 21.87609555 67.42578125 20.68359375 C68.13163864 20.34884537 68.83749603 20.01409698 69.56474304 19.66920471 C71.81741488 18.59898068 74.065 17.51853613 76.3125 16.4375 C77.77896416 15.73823412 79.24575877 15.03966079 80.71289062 14.34179688 C83.64764197 12.94461995 86.58143386 11.5454657 89.51416016 10.14404297 C90.24556213 9.79460632 90.97696411 9.44516968 91.73052979 9.08514404 C93.28815744 8.34036654 94.84538779 7.59475771 96.40228271 6.84844971 C98.75992852 5.71947553 101.11993757 4.5955825 103.48046875 3.47265625 C104.20607498 3.12375839 104.93168121 2.77486053 105.67927551 2.41539001 C110.77229395 0 110.77229395 0 113 0 C113 12.21 113 24.42 113 37 C75.32272536 41.38958539 37.66801708 41.56582025 0 37 C0 24.79 0 12.58 0 0 Z " fill="#252455" transform="translate(70,73)"/>
<path d="M0 0 C4.84386697 1.49085555 9.29045856 3.45132121 13.84375 5.640625 C14.97546127 6.17954628 14.97546127 6.17954628 16.1300354 6.72935486 C17.74852273 7.50038639 19.36631115 8.27288643 20.98345947 9.04672241 C23.52062021 10.2598595 26.06040349 11.46732853 28.60107422 12.6730957 C36.03372226 16.2014083 43.46190181 19.73861793 50.87738037 23.30288696 C53.6424422 24.6292844 56.4118197 25.94647043 59.18237305 27.26135254 C60.47206014 27.8762109 61.75969029 28.49540347 63.04516602 29.11901855 C64.81925274 29.97932624 66.60086136 30.82407115 68.3828125 31.66796875 C69.37684082 32.14516357 70.37086914 32.6223584 71.39501953 33.11401367 C76.11219527 34.71838394 79.3638757 32.47232718 83.70703125 30.4453125 C84.84084229 29.91760254 85.97465332 29.38989258 87.14282227 28.84619141 C87.74168243 28.56527649 88.3405426 28.28436157 88.95755005 27.99493408 C90.82666174 27.11835843 92.69813878 26.24700453 94.57006836 25.37646484 C100.69312206 22.52281717 106.79235953 19.62770468 112.859375 16.65625 C113.90891357 16.14433105 114.95845215 15.63241211 116.03979492 15.10498047 C118.02349716 14.13371781 120.00300901 13.15383972 121.9777832 12.16455078 C122.86296631 11.73126465 123.74814941 11.29797852 124.66015625 10.8515625 C125.42980713 10.46822754 126.19945801 10.08489258 126.99243164 9.68994141 C129 9 129 9 132 10 C128.17087095 13.24938695 123.75573094 15.15870803 119.24609375 17.2734375 C117.96195335 17.88186996 117.96195335 17.88186996 116.65187073 18.50259399 C113.91571782 19.79761318 111.17662593 21.08628306 108.4375 22.375 C106.62155838 23.23398103 104.80580121 24.09335211 102.99023438 24.953125 C99.52111207 26.59506616 96.047443 28.226725 92.56982422 29.85058594 C89.85474817 31.11969236 87.16482564 32.41555922 84.48095703 33.75097656 C83.52946777 34.21729492 82.57797852 34.68361328 81.59765625 35.1640625 C80.83074463 35.55287598 80.06383301 35.94168945 79.27368164 36.34228516 C73.99653396 37.86882181 69.46071989 35.48165691 64.7734375 33.15625 C64.19174805 32.8709845 63.61005859 32.58571899 63.01074219 32.29180908 C61.76976139 31.68249015 60.53043486 31.0697921 59.29266357 30.45397949 C56.0569425 28.84430635 52.8094791 27.25868396 49.5625 25.671875 C48.9176767 25.35607483 48.27285339 25.04027466 47.60848999 24.71490479 C41.10949603 21.54283934 34.52619663 18.57091613 27.90380859 15.66601562 C27.15953613 15.33794922 26.41526367 15.00988281 25.6484375 14.671875 C25.01083496 14.3944043 24.37323242 14.11693359 23.71630859 13.83105469 C22 13 22 13 19 11 C19 22.55 19 34.1 19 46 C10 39.25 10 39.25 6 35.625 C5.236875 34.93664062 4.47375 34.24828125 3.6875 33.5390625 C2.8521875 32.77722656 2.8521875 32.77722656 2 32 C2.50603992 29.83125748 2.99983813 28.00032373 4 26 C4.52802088 21.18721956 4.85640895 16.61076795 2.125 12.4375 C0.23715667 9.96011374 0.23715667 9.96011374 -2 9 C-1.34 6.03 -0.68 3.06 0 0 Z " fill="#FBD195" transform="translate(51,62)"/>
<path d="M0 0 C4.47422818 2.54965209 7.27998238 4.98987643 8.75 10.0859375 C8.86901776 15.25863243 8.26369958 20.11885732 4.75 24.0859375 C-0.45836499 27.73419316 -4.97030429 28.88335918 -11.25 28.0859375 C-16.15371716 26.39810003 -19.29833266 23.66259105 -21.5859375 19.0078125 C-23.02939966 14.83026319 -23.23329645 11.18224186 -21.33203125 7.12890625 C-16.47368506 -0.33942528 -8.43955195 -3.42856798 0 0 Z " fill="#21211F" transform="translate(175.25,159.9140625)"/>
<path d="M0 0 C5.14949557 1.7825177 8.00624425 4.46659843 11 9 C12.29013749 12.96539193 12.26960411 16.19118767 10.9375 20.1875 C8.04711208 24.3832244 4.93375147 27.35541618 0 29 C-5.27766682 29.82235834 -9.02416946 29.45337393 -13.4375 26.3125 C-17.87893017 22.52448102 -18.82167239 19.87243993 -19.375 14.0625 C-19.24485602 9.74334682 -17.84834139 7.2980795 -15 4 C-10.20662513 -0.2360057 -6.14861504 -0.89575147 0 0 Z " fill="#21211F" transform="translate(92,159)"/>
<path d="M0 0 C0.66 0.66 1.32 1.32 2 2 C1.73768917 5.93466238 1.3290718 9.12892759 -0.0625 12.8125 C-1.7237242 18.46066229 -1.42009444 24.38248847 -0.4921875 30.1640625 C0.14231187 35.10912901 0.10674082 39.95870656 0.0625 44.9375 C0.05798828 45.90751953 0.05347656 46.87753906 0.04882812 47.87695312 C0.0371315 50.2513676 0.02074086 52.62565021 0 55 C-1.485 55.495 -1.485 55.495 -3 56 C-3.33 54.35 -3.66 52.7 -4 51 C-4.495 53.475 -4.495 53.475 -5 56 C-6.32 56 -7.64 56 -9 56 C-9 55.01 -9 54.02 -9 53 C-9.33 53.66 -9.66 54.32 -10 55 C-13.71599191 55.20086443 -14.77208445 55.1519437 -18 53 C-18.79117013 47.05513288 -17.07323381 43.29494898 -14.3125 38.25 C-13.57529567 36.84324721 -12.8396227 35.43569087 -12.10546875 34.02734375 C-11.74501465 33.34397949 -11.38456055 32.66061523 -11.01318359 31.95654297 C-8.82276802 27.72666575 -6.88913255 23.37136485 -5 19 C-4.6596875 18.2265625 -4.319375 17.453125 -3.96875 16.65625 C-2.77312172 13.37791441 -2.07754911 10.10444338 -1.375 6.6875 C-1.11460938 5.43324219 -0.85421875 4.17898437 -0.5859375 2.88671875 C-0.39257812 1.93410156 -0.19921875 0.98148437 0 0 Z " fill="#272656" transform="translate(47,69)"/>
<path d="M0 0 C-1.71428571 17.71428571 -1.71428571 17.71428571 -5 21 C-6.03842565 23.31648799 -7.0421975 25.64903024 -8 28 C-10.65696068 27.84817368 -12.44234524 27.52675976 -14.41015625 25.66796875 C-18.31758769 20.98588618 -19.35767088 18.26768238 -19.28125 12.31640625 C-18.71771433 7.67506384 -15.87222028 4.97483444 -12.875 1.625 C-8.65694446 -0.75911835 -4.73879295 -0.33125543 0 0 Z " fill="#E7EDF6" transform="translate(47,68)"/>
<path d="M0 0 C-3.82912905 3.24938695 -8.24426906 5.15870803 -12.75390625 7.2734375 C-13.60999985 7.67905914 -14.46609344 8.08468079 -15.34812927 8.50259399 C-18.08428218 9.79761318 -20.82337407 11.08628306 -23.5625 12.375 C-25.37844162 13.23398103 -27.19419879 14.09335211 -29.00976562 14.953125 C-32.47888793 16.59506616 -35.952557 18.226725 -39.43017578 19.85058594 C-42.14525183 21.11969236 -44.83517436 22.41555922 -47.51904297 23.75097656 C-48.47053223 24.21729492 -49.42202148 24.68361328 -50.40234375 25.1640625 C-51.16925537 25.55287598 -51.93616699 25.94168945 -52.72631836 26.34228516 C-58.00346604 27.86882181 -62.53928011 25.48165691 -67.2265625 23.15625 C-67.80838791 22.87089386 -68.39021332 22.58553772 -68.9896698 22.29153442 C-70.23078248 21.68211272 -71.47024664 21.06932386 -72.7081604 20.45343018 C-75.9395164 18.84616355 -79.18301602 17.26377499 -82.42578125 15.6796875 C-83.0699852 15.36430023 -83.71418915 15.04891296 -84.37791443 14.72396851 C-92.82169427 10.60235838 -101.40075005 6.78407041 -110 3 C-110 2.67 -110 2.34 -110 2 C-105.09806251 2.52572953 -101.2360928 3.54745098 -96.7890625 5.66015625 C-95.6340625 6.20333496 -94.4790625 6.74651367 -93.2890625 7.30615234 C-92.6899707 7.59335144 -92.09087891 7.88055054 -91.47363281 8.17645264 C-89.60633314 9.071447 -87.7337044 9.95430589 -85.859375 10.83447266 C-80.39371791 13.4066403 -74.94763752 16.01712163 -69.5234375 18.67578125 C-68.74403809 19.05404053 -67.96463867 19.4322998 -67.16162109 19.82202148 C-65.76066134 20.50446325 -64.36473692 21.19738031 -62.97509766 21.90258789 C-59.44118924 23.62570634 -57.70424579 24.25859837 -54 23 C-52.08234388 22.18350417 -50.18164016 21.32678327 -48.29296875 20.4453125 C-47.15915771 19.91760254 -46.02534668 19.38989258 -44.85717773 18.84619141 C-44.25831757 18.56527649 -43.6594574 18.28436157 -43.04244995 17.99493408 C-41.17333826 17.11835843 -39.30186122 16.24700453 -37.42993164 15.37646484 C-31.30687794 12.52281717 -25.20764047 9.62770468 -19.140625 6.65625 C-18.09108643 6.14433105 -17.04154785 5.63241211 -15.96020508 5.10498047 C-13.97650284 4.13371781 -11.99699099 3.15383972 -10.0222168 2.16455078 C-9.13703369 1.73126465 -8.25185059 1.29797852 -7.33984375 0.8515625 C-6.57019287 0.46822754 -5.80054199 0.08489258 -5.00756836 -0.31005859 C-3 -1 -3 -1 0 0 Z " fill="#E2BD8D" transform="translate(183,72)"/>
<path d="M0 0 C0.66 0.66 1.32 1.32 2 2 C1.71267364 6.45355865 1.4056198 10.15100832 -1 14 C-2.33500455 8.65998179 -1.512545 5.16044765 0 0 Z " fill="#55577E" transform="translate(47,69)"/>
<path d="M0 0 C5.75 1.75 5.75 1.75 8 4 C5 5 5 5 1.8125 3.5625 C0.884375 3.046875 -0.04375 2.53125 -1 2 C-0.67 1.34 -0.34 0.68 0 0 Z " fill="#DEBA8B" transform="translate(100,85)"/>
</svg>
