<?xml version="1.0" encoding="UTF-8"?>
<svg version="1.1" xmlns="http://www.w3.org/2000/svg" width="400" height="148">
<path d="M0 0 C1.32 0.33 2.64 0.66 4 1 C3.84144531 1.495 3.68289063 1.99 3.51953125 2.5 C0.38183218 17.59870231 4.4703975 30.55660082 12.56225586 43.1940918 C15.05279824 46.9187893 17.76139781 49.94417606 21 53 C32.71668389 39.02324511 40.3241873 25.9815708 38.7734375 7.265625 C38.53374497 4.84130625 38.27773115 2.42022859 38 0 C41.7890625 0.7109375 41.7890625 0.7109375 43.6875 3.3125 C47.8144125 11.76284465 46.16349596 20.08485352 43.35546875 28.69140625 C41.22314411 33.89624479 38.25722352 38.43439737 35 43 C44.83921949 33.73579983 47.18706523 23.02834936 48 10 C51.62092432 13.45227853 52.83751662 16.27767621 53.3125 21.3125 C52.65478767 29.07350546 49.57059381 34.0037631 44.62109375 39.921875 C43.09286641 41.88095197 42.02148674 43.74358153 41 46 C44.77563611 41.83128397 48.12196879 37.84721046 51 33 C51.66 33 52.32 33 53 33 C52.4320501 40.09937373 50.06414265 44.30885749 44.8125 49 C40.76097859 52.32522275 36.40302857 55.16704363 32 58 C31.01 58.66 30.02 59.32 29 60 C29 60.66 29 61.32 29 62 C30.78723941 63.58455866 30.78723941 63.58455866 33 65.125 C33.7425 65.66382812 34.485 66.20265625 35.25 66.7578125 C35.8275 67.16773437 36.405 67.57765625 37 68 C35.41045275 71.33314754 33.92362316 73.66110147 31 76 C28.5625 76.6875 28.5625 76.6875 26 76 C24.03838908 73.84008415 22.49773412 71.49834798 21 69 C18.66475218 71.25740623 16.81294927 73.2805761 15 76 C8.63265306 75.63265306 8.63265306 75.63265306 5.5625 72.5625 C4 70 4 70 4 68 C5.75 66.4921875 5.75 66.4921875 8 64.875 C8.7425 64.33617188 9.485 63.79734375 10.25 63.2421875 C10.8275 62.83226562 11.405 62.42234375 12 62 C10.88218303 58.64654909 10.37064746 58.29672536 7.54296875 56.44140625 C6.84236328 55.97283203 6.14175781 55.50425781 5.41992188 55.02148438 C4.68322266 54.54001953 3.94652344 54.05855469 3.1875 53.5625 C-9.16365556 45.42720554 -9.16365556 45.42720554 -11 39 C-11.125 35.6875 -11.125 35.6875 -11 33 C-7.8319859 35.9946881 -5.38874542 39.43680993 -2.81640625 42.94140625 C-0.97875459 45.02407813 0.45169374 45.96387548 3 47 C2.32453125 46.31035156 1.6490625 45.62070313 0.953125 44.91015625 C-5.94500421 37.64319643 -11.05958916 31.68405292 -11.4375 21.3125 C-11.28274605 16.90510761 -10.43927621 13.76055082 -8 10 C-7.34 10.33 -6.68 10.66 -6 11 C-6.061875 12.27875 -6.12375 13.5575 -6.1875 14.875 C-6.12299526 25.19575848 -1.77312535 32.68037279 4 41 C3.72285156 40.4534375 3.44570312 39.906875 3.16015625 39.34375 C1.87525658 36.7479931 0.64827004 34.13116593 -0.5625 31.5 C-0.99691406 30.5615625 -1.43132813 29.623125 -1.87890625 28.65625 C-4.87207625 21.56441865 -5.54315593 12.64968382 -3.10546875 5.3046875 C-2 3.125 -2 3.125 0 0 Z M9 46 C10 48 10 48 10 48 Z M36 48 C35.01 49.485 35.01 49.485 34 51 C35.32 50.34 36.64 49.68 38 49 C37.34 48.67 36.68 48.34 36 48 Z " fill="#1D2050" transform="translate(11,36)"/>
<path d="M0 0 C3.44610103 2.90373647 6.0014092 6.60620048 7 11 C7.17569853 17.05643163 6.33495141 21.83911315 2.4609375 26.59765625 C-4.41052953 33.19352968 -12.97867896 32 -22 32 C-22.33 20.78 -22.66 9.56 -23 -2 C-14.59053497 -3.20135215 -7.71626769 -3.87984942 0 0 Z M-17 0 C-17 9.57 -17 19.14 -17 29 C-9.87135723 29.33836826 -9.87135723 29.33836826 -4 27 C0.71169896 21.76477893 1.29083525 18.59237098 1.21875 11.69921875 C0.86008015 7.27348893 -0.74174348 5.10097445 -4 2.25 C-8.6189046 -0.63681537 -11.00168262 0 -17 0 Z " fill="#1D2051" transform="translate(141,61)"/>
<path d="M0 0 C0.66 0 1.32 0 2 0 C2 1.65 2 3.3 2 5 C5.63 5 9.26 5 13 5 C13.63228516 6.60681641 13.63228516 6.60681641 14.27734375 8.24609375 C14.83059319 9.64328302 15.38398602 11.04041551 15.9375 12.4375 C16.35418945 13.49807617 16.35418945 13.49807617 16.77929688 14.58007812 C17.96222034 18.04673881 17.96222034 18.04673881 20 21 C23.31852744 13.24029291 23.31852744 13.24029291 25 5 C26.65 5 28.3 5 30 5 C29.0069483 10.8834504 26.56954592 16.00207334 24.1875 21.4375 C23.74857422 22.46166016 23.30964844 23.48582031 22.85742188 24.54101562 C20.60803719 29.70490767 18.34218981 34.45804975 15 39 C12.5625 38.625 12.5625 38.625 10 38 C9.67 37.34 9.34 36.68 9 36 C9.969375 35.4225 10.93875 34.845 11.9375 34.25 C15.01584719 32.38144414 15.01584719 32.38144414 15.80834961 30.15722656 C16.05868156 27.33947736 15.3245389 25.78942559 14.12890625 23.234375 C13.51499023 21.90019531 13.51499023 21.90019531 12.88867188 20.5390625 C12.2322168 19.15847656 12.2322168 19.15847656 11.5625 17.75 C11.12873047 16.81414062 10.69496094 15.87828125 10.24804688 14.9140625 C9.17566685 12.6043209 8.09273597 10.30016329 7 8 C5.35 8 3.7 8 2 8 C2.14120016 10.58366245 2.28778333 13.16682885 2.4375 15.75 C2.47681641 16.47960937 2.51613281 17.20921875 2.55664062 17.9609375 C2.83350326 23.05993882 2.83350326 23.05993882 4 28 C4.66 28.33 5.32 28.66 6 29 C6 29.66 6 30.32 6 31 C3.6875 31.25 3.6875 31.25 1 31 C-1.75122093 28.13517974 -2.3683788 26.15569754 -2.29296875 22.234375 C-2.28330078 21.34492187 -2.27363281 20.45546875 -2.26367188 19.5390625 C-2.23853516 18.61867188 -2.21339844 17.69828125 -2.1875 16.75 C-2.16719727 15.34621094 -2.16719727 15.34621094 -2.14648438 13.9140625 C-2.11119954 11.60878673 -2.06190281 9.3046894 -2 7 C-2.99 7 -3.98 7 -5 7 C-5 6.34 -5 5.68 -5 5 C-3.68 4.67 -2.36 4.34 -1 4 C-0.67 2.68 -0.34 1.36 0 0 Z " fill="#1D2050" transform="translate(370,63)"/>
<path d="M0 0 C1.98 0 3.96 0 6 0 C6.01981934 0.59425781 6.03963867 1.18851563 6.06005859 1.80078125 C6.15623993 4.53424419 6.26553557 7.26703803 6.375 10 C6.4059375 10.93457031 6.436875 11.86914062 6.46875 12.83203125 C6.70591758 18.48452534 7.20128988 23.61610576 9 29 C11.89579382 31.37222995 11.89579382 31.37222995 15.5625 30.75 C19.04592612 30.3141556 19.04592612 30.3141556 21 28 C21.35584927 25.20191739 21.35584927 25.20191739 21.37890625 21.93359375 C21.41306641 20.72638672 21.44722656 19.51917969 21.48242188 18.27539062 C21.50884766 17.00888672 21.53527344 15.74238281 21.5625 14.4375 C21.6221479 11.93609541 21.68572853 9.43478039 21.75390625 6.93359375 C21.77783447 5.82040771 21.8017627 4.70722168 21.82641602 3.56030273 C22 1 22 1 23 0 C24.66617115 -0.04063832 26.33388095 -0.042721 28 0 C28.08770383 3.85402129 28.14062735 7.70778291 28.1875 11.5625 C28.21263672 12.64853516 28.23777344 13.73457031 28.26367188 14.85351562 C28.32718391 21.8186687 28.18006729 27.4665919 23.3125 32.875 C18.56260432 35.18576006 14.32820239 35.22136706 9.25 34.375 C5.543605 32.80690981 4.13627482 31.36874106 2 28 C0.96285478 24.88856433 0.79968139 22.50531904 0.68359375 19.23828125 C0.64169922 18.12001953 0.59980469 17.00175781 0.55664062 15.84960938 C0.51732422 14.68236328 0.47800781 13.51511719 0.4375 12.3125 C0.39431641 11.13365234 0.35113281 9.95480469 0.30664062 8.74023438 C0.20048824 5.82694117 0.09843758 2.91356243 0 0 Z " fill="#1E2050" transform="translate(154,59)"/>
<path d="M0 0 C1.65 0 3.3 0 5 0 C5.01458252 0.73114014 5.02916504 1.46228027 5.04418945 2.21557617 C5.1188291 5.54007371 5.21543801 8.86358467 5.3125 12.1875 C5.33505859 13.33798828 5.35761719 14.48847656 5.38085938 15.67382812 C5.41630859 16.78564453 5.45175781 17.89746094 5.48828125 19.04296875 C5.51446533 20.06414795 5.54064941 21.08532715 5.56762695 22.13745117 C6.06162705 25.40800518 7.06411054 27.3384116 9 30 C11.84083641 31.42041821 13.85477278 31.31452272 17 31 C19.62392435 29.0852444 20.78476716 27.85007552 21.58569336 24.68676758 C21.99909547 22.00586583 22.20548497 19.40886707 22.31640625 16.69921875 C22.35830078 15.72275391 22.40019531 14.74628906 22.44335938 13.74023438 C22.48267578 12.73283203 22.52199219 11.72542969 22.5625 10.6875 C22.60568359 9.66076172 22.64886719 8.63402344 22.69335938 7.57617188 C22.79906825 5.05090431 22.90116468 2.52554438 23 0 C24.32 0 25.64 0 27 0 C27.08742801 4.20820145 27.14053641 8.41616776 27.1875 12.625 C27.21263672 13.81480469 27.23777344 15.00460938 27.26367188 16.23046875 C27.35754099 27.43218261 27.35754099 27.43218261 24 32 C19.0279967 35.14555311 15.08908398 35.39665485 9.3046875 34.5703125 C5.9947707 33.75124834 4.22621054 32.57405593 2 30 C-0.76838743 24.12443647 -0.2221386 17.96889778 -0.125 11.625 C-0.11597656 10.50738281 -0.10695312 9.38976562 -0.09765625 8.23828125 C-0.07418346 5.49196538 -0.04134728 2.74609528 0 0 Z " fill="#1D2051" transform="translate(203,59)"/>
<path d="M0 0 C1.19882813 0.15275391 1.19882813 0.15275391 2.421875 0.30859375 C3.02515625 0.39238281 3.6284375 0.47617187 4.25 0.5625 C4.25 2.2125 4.25 3.8625 4.25 5.5625 C3.71375 5.2325 3.1775 4.9025 2.625 4.5625 C-0.37934544 3.29751245 -2.51767442 3.21863558 -5.75 3.5625 C-7.77478463 4.66899669 -7.77478463 4.66899669 -8.75 6.5625 C-8.79770724 8.54902392 -8.79770724 8.54902392 -7.75 10.5625 C-5.09197787 12.44295207 -5.09197787 12.44295207 -1.875 14.0625 C5.03954889 17.72804399 5.03954889 17.72804399 7.25 21.5625 C7.91315825 26.03881815 7.57124485 28.02039932 5.25 31.9375 C1.64669747 35.09038971 -1.0938145 35.81842509 -5.75 35.5625 C-8.80687753 35.07358946 -11.76993013 34.3971955 -14.75 33.5625 C-14.75 31.9125 -14.75 30.2625 -14.75 28.5625 C-14.069375 28.871875 -13.38875 29.18125 -12.6875 29.5 C-8.42383552 31.04217651 -4.61720859 32.37641144 -0.3125 30.5 C1.84592703 27.82355048 1.54697766 25.90349864 1.25 22.5625 C0.425 22.335625 -0.4 22.10875 -1.25 21.875 C-5.95403536 20.11098674 -11.20501914 17.98963082 -13.98828125 13.6171875 C-15.21980843 10.29522189 -14.65305081 7.93388967 -13.75 4.5625 C-9.48047562 0.17758307 -5.92661846 -0.78440538 0 0 Z " fill="#1D2050" transform="translate(103.75,58.4375)"/>
<path d="M0 0 C2.34241108 1.82187528 3.83284402 3.13944951 5.25 5.75 C5.4375 9 5.4375 9 5.25 11.75 C1.40158652 12.93031238 -2.508279 13.08235351 -6.5 13.3125 C-7.19738281 13.35568359 -7.89476562 13.39886719 -8.61328125 13.44335938 C-10.32531922 13.54889596 -12.03763561 13.6498991 -13.75 13.75 C-11.72366931 18.07371893 -11.72366931 18.07371893 -8.75 21.75 C-4.72890201 21.60107044 -2.48316834 21.40390689 0.5625 18.6875 C1.119375 18.048125 1.67625 17.40875 2.25 16.75 C2.91 16.75 3.57 16.75 4.25 16.75 C4.5 19.0625 4.5 19.0625 4.25 21.75 C1.58776472 24.85594116 -1.66296282 25.45520897 -5.66015625 25.8125 C-10.41949206 25.67016472 -13.7486399 23.69865694 -17.125 20.5 C-19.46696518 16.53667431 -20.19385947 13.24495745 -19.37890625 8.6640625 C-18.23317038 4.83545443 -16.91037542 2.42373028 -13.5 0.25 C-8.84499568 -1.95965395 -4.73541496 -2.15246134 0 0 Z M-9.5 1.875 C-11.94087185 3.72854541 -11.94087185 3.72854541 -13.75 6.75 C-13.75 7.74 -13.75 8.73 -13.75 9.75 C-9.13 9.75 -4.51 9.75 0.25 9.75 C-0.03315192 3.79315473 -0.03315192 3.79315473 -3.5 1.6875 C-6.70402304 0.3992941 -6.70402304 0.3992941 -9.5 1.875 Z " fill="#1D204F" transform="translate(310.75,68.25)"/>
<path d="M0 0 C3.15954305 2.54137159 4.71540886 4.14622659 6 8 C6.08021999 9.40824893 6.10765977 10.81997231 6.09765625 12.23046875 C6.09443359 13.03291016 6.09121094 13.83535156 6.08789062 14.66210938 C6.07951172 15.49548828 6.07113281 16.32886719 6.0625 17.1875 C6.05798828 18.03248047 6.05347656 18.87746094 6.04882812 19.74804688 C6.03705403 21.83206155 6.0191189 23.91603977 6 26 C4.35 26 2.7 26 1 26 C0.98598145 25.16807129 0.98598145 25.16807129 0.97167969 24.31933594 C0.91784278 21.79533519 0.83422746 19.27316186 0.75 16.75 C0.73582031 15.87730469 0.72164062 15.00460938 0.70703125 14.10546875 C0.55833294 8.84490626 0.55833294 8.84490626 -2.046875 4.390625 C-2.69140625 3.93171875 -3.3359375 3.4728125 -4 3 C-5.65 3.66 -7.3 4.32 -9 5 C-9.33 11.93 -9.66 18.86 -10 26 C-11.65 26 -13.3 26 -15 26 C-15.33 17.75 -15.66 9.5 -16 1 C-13.69 1 -11.38 1 -9 1 C-5.86128812 -0.56935594 -3.46144178 -0.35201103 0 0 Z " fill="#1D204F" transform="translate(250,67)"/>
<path d="M0 0 C0.66 0.33 1.32 0.66 2 1 C2 2.65 2 4.3 2 6 C1.34 6 0.68 6 0 6 C0 5.34 0 4.68 0 4 C-2.35367713 3.3121764 -2.35367713 3.3121764 -5 3 C-5.99 3.66 -6.98 4.32 -8 5 C-7.31852627 8.09033594 -7.31852627 8.09033594 -5.00390625 9.28125 C-4.19824219 9.6834375 -3.39257812 10.085625 -2.5625 10.5 C0.75948619 12.16365921 1.87414755 12.81122132 4 16 C4.44890509 19.51642319 4.4468255 21.31114402 2.5 24.3125 C-0.92569328 26.62484296 -3.87557375 27.33185039 -8 27 C-11.5 25.375 -11.5 25.375 -14 23 C-14.375 20.25 -14.375 20.25 -14 18 C-13.55269531 18.37253906 -13.10539062 18.74507812 -12.64453125 19.12890625 C-8.81788032 22.28767572 -8.81788032 22.28767572 -4.0625 22.8125 C-3.381875 22.544375 -2.70125 22.27625 -2 22 C-1.67 21.01 -1.34 20.02 -1 19 C-2.86988566 16.81846673 -4.38517672 15.80741164 -7 14.5 C-11.5 12.25 -11.5 12.25 -13 10 C-13.4026126 6.77909921 -13.6274149 4.8664301 -11.6875 2.1875 C-7.97554366 -0.42461742 -4.38034389 -0.15928523 0 0 Z " fill="#1C1F50" transform="translate(350,67)"/>
<path d="M0 0 C2.31 0 4.62 0 7 0 C7.83919398 2.26882087 8.67151724 4.53977027 9.5 6.8125 C9.73847656 7.45509766 9.97695313 8.09769531 10.22265625 8.75976562 C11.27068746 11.64933739 12 13.90076061 12 17 C12.66 17 13.32 17 14 17 C15.95088223 11.38145918 17.63172347 5.78886224 19 0 C20.65 0 22.3 0 24 0 C21.24892128 8.90054879 17.59701637 17.41643491 14 26 C13.01 26 12.02 26 11 26 C9.16370918 21.8554703 7.33146258 17.70916529 5.5 13.5625 C4.97535156 12.37849609 4.45070313 11.19449219 3.91015625 9.97460938 C3.41386719 8.84990234 2.91757812 7.72519531 2.40625 6.56640625 C1.94541016 5.52427979 1.48457031 4.48215332 1.00976562 3.40844727 C0 1 0 1 0 0 Z " fill="#1C1F50" transform="translate(267,68)"/>
<path d="M0 0 C1.125 3.75 1.125 3.75 0 6 C-0.66 6 -1.32 6 -2 6 C-2 5.34 -2 4.68 -2 4 C-3.98 4.33 -5.96 4.66 -8 5 C-8.88639389 7.65918166 -9.17989025 9.48064641 -9.31640625 12.23046875 C-9.35830078 13.03291016 -9.40019531 13.83535156 -9.44335938 14.66210938 C-9.50233398 15.91217773 -9.50233398 15.91217773 -9.5625 17.1875 C-9.60568359 18.03248047 -9.64886719 18.87746094 -9.69335938 19.74804688 C-9.79931518 21.83184433 -9.9001502 23.91590103 -10 26 C-11.32 26 -12.64 26 -14 26 C-14.33 17.75 -14.66 9.5 -15 1 C-13.02 1 -11.04 1 -9 1 C-6.04335481 -0.4783226 -3.25770263 -0.06032783 0 0 Z " fill="#1D2051" transform="translate(334,67)"/>
<path d="M0 0 C1.65 0 3.3 0 5 0 C5 8.25 5 16.5 5 25 C3.35 24.67 1.7 24.34 0 24 C0 16.08 0 8.16 0 0 Z " fill="#1D2050" transform="translate(260,68)"/>
<path d="M0 0 C1.65 0 3.3 0 5 0 C5 8.25 5 16.5 5 25 C3.68 25 2.36 25 1 25 C0.67 16.75 0.34 8.5 0 0 Z " fill="#1D2050" transform="translate(357,68)"/>
<path d="M0 0 C0.66 0 1.32 0 2 0 C5.03780378 5.2250225 5.03780378 5.2250225 4.875 8.5625 C3.89365378 11.29625018 2.59258725 13.57649767 1 16 C-4 10.35483871 -4 10.35483871 -4 6 C-2.1875 2.6875 -2.1875 2.6875 0 0 Z " fill="#F5A466" transform="translate(31,50)"/>
<path d="M0 0 C-0.33 1.65 -0.66 3.3 -1 5 C-2.65 4.67 -4.3 4.34 -6 4 C-6 2.68 -6 1.36 -6 0 C-3.50907189 -1.24546405 -2.58919267 -0.7767578 0 0 Z " fill="#1E214F" transform="translate(363,60)"/>
<path d="M0 0 C1.9375 0.3125 1.9375 0.3125 4 1 C4.33 1.99 4.66 2.98 5 4 C4.67 4.66 4.34 5.32 4 6 C2.35 5.67 0.7 5.34 -1 5 C-0.67 3.35 -0.34 1.7 0 0 Z " fill="#1D204F" transform="translate(261,59)"/>
</svg>
