<?xml version="1.0" standalone="no"?>
<!DOCTYPE svg PUBLIC "-//W3C//DTD SVG 20010904//EN"
 "http://www.w3.org/TR/2001/REC-SVG-20010904/DTD/svg10.dtd">
<svg version="1.0" xmlns="http://www.w3.org/2000/svg"
 width="400.000000pt" height="148.000000pt" viewBox="0 0 400.000000 148.000000"
 preserveAspectRatio="xMidYMid meet">

<g transform="translate(0.000000,148.000000) scale(0.100000,-0.100000)"
fill="#000000" stroke="none">
<path d="M106 1095 c-79 -120 -19 -307 158 -492 22 -24 36 -46 32 -50 -9 -9
-140 128 -188 196 -45 64 -68 132 -68 204 l-1 62 -16 -30 c-9 -16 -17 -52 -17
-80 0 -80 34 -136 161 -262 62 -61 109 -114 104 -117 -4 -3 -19 6 -32 20 -12
13 -54 48 -92 77 -38 28 -87 77 -109 107 -34 47 -38 51 -32 25 17 -71 38 -95
150 -168 107 -70 108 -72 50 -122 -27 -23 -44 -45 -39 -48 5 -3 29 14 53 38
24 24 47 42 53 38 5 -3 -13 -27 -39 -54 -26 -27 -44 -52 -40 -56 4 -5 28 14
52 41 58 63 69 52 14 -14 -25 -30 -36 -50 -28 -50 8 0 30 21 48 47 l33 46 28
-30 c15 -17 31 -39 37 -48 5 -10 15 -16 21 -14 8 3 -4 23 -29 52 -24 26 -39
51 -35 55 4 4 26 -14 49 -41 23 -26 45 -47 49 -47 18 0 3 23 -38 61 -25 23
-42 46 -39 51 4 5 25 -9 48 -31 40 -40 66 -52 66 -31 0 6 -3 10 -7 10 -5 0
-26 16 -48 35 l-40 34 30 25 c17 14 53 40 80 58 72 45 123 97 136 136 16 48 7
48 -28 -1 -29 -42 -227 -210 -236 -201 -2 3 46 55 109 117 152 151 191 237
150 332 -12 29 -13 28 -20 -40 -8 -77 -36 -143 -96 -220 -52 -67 -158 -170
-166 -162 -4 3 22 37 57 75 110 120 168 238 168 342 1 51 -25 130 -45 143 -5
3 -9 -52 -9 -122 l0 -127 -42 -85 c-40 -81 -129 -204 -148 -204 -13 0 -107
127 -137 187 -42 83 -61 172 -55 253 3 39 8 78 12 88 11 26 -10 21 -29 -8z
m219 -554 c3 -5 1 -12 -5 -16 -5 -3 -10 1 -10 9 0 18 6 21 15 7z m-25 -31 c0
-5 -4 -10 -10 -10 -5 0 -10 5 -10 10 0 6 5 10 10 10 6 0 10 -4 10 -10z m50 0
c0 -5 -4 -10 -10 -10 -5 0 -10 5 -10 10 0 6 5 10 10 10 6 0 10 -4 10 -10z
m-25 -19 c3 -5 1 -12 -5 -16 -5 -3 -10 1 -10 9 0 18 6 21 15 7z"/>
<path d="M960 883 c-33 -13 -60 -47 -60 -78 0 -44 25 -74 86 -101 29 -13 61
-35 70 -49 15 -23 15 -27 0 -50 -30 -46 -80 -52 -135 -16 -22 14 -23 13 -20
-4 5 -23 60 -39 112 -32 54 7 87 41 87 88 0 47 -21 72 -89 107 -62 31 -76 49
-68 84 9 35 56 54 97 39 24 -8 31 -8 27 2 -4 13 -81 20 -107 10z"/>
<path d="M1197 883 c-2 -5 -2 -79 1 -165 l5 -158 65 0 c78 0 137 24 173 72 32
44 34 142 3 185 -33 46 -98 73 -176 73 -37 0 -69 -3 -71 -7z m158 -24 c87 -43
101 -189 24 -254 -24 -20 -41 -25 -84 -25 l-54 0 -3 146 c-2 80 -1 148 2 151
9 8 85 -3 115 -18z"/>
<path d="M1558 758 c4 -145 16 -175 78 -197 50 -17 104 -8 141 24 28 23 28 25
31 159 3 132 3 136 -17 136 -20 0 -21 -5 -21 -119 0 -65 -5 -132 -11 -149 -18
-52 -96 -63 -136 -20 -15 16 -19 41 -21 132 -3 135 -7 156 -30 156 -15 0 -17
-12 -14 -122z"/>
<path d="M2040 753 c6 -143 15 -168 65 -189 68 -28 150 -8 175 44 8 16 15 76
18 150 4 119 3 122 -17 122 -20 0 -21 -5 -21 -122 0 -136 -9 -165 -54 -187
-37 -17 -82 -5 -110 32 -17 23 -21 46 -24 152 -4 107 -7 125 -21 125 -14 0
-15 -14 -11 -127z"/>
<path d="M2604 869 c-3 -6 0 -17 7 -25 18 -17 44 -2 36 20 -7 18 -33 21 -43 5z"/>
<path d="M3580 862 c0 -24 8 -32 26 -25 22 8 17 43 -6 43 -13 0 -20 -7 -20
-18z"/>
<path d="M3684 813 c-17 -18 -26 -33 -19 -33 8 0 14 -29 18 -92 5 -105 11
-124 40 -139 18 -10 19 -9 11 7 -5 11 -10 65 -12 121 -3 99 -3 102 20 106 22
4 22 4 1 6 -16 1 -23 8 -25 29 l-3 29 -31 -34z"/>
<path d="M2354 778 c3 -13 6 -67 6 -120 0 -80 3 -98 15 -98 12 0 15 18 15 99
0 92 2 101 22 115 30 21 61 20 81 -2 13 -15 17 -39 17 -115 0 -94 1 -97 23
-97 22 0 22 1 17 101 -5 91 -8 103 -29 120 -27 22 -90 25 -110 7 -11 -10 -14
-10 -18 0 -3 6 -14 12 -25 12 -16 0 -19 -5 -14 -22z"/>
<path d="M2976 779 c-14 -11 -33 -34 -41 -49 -55 -107 67 -221 175 -165 17 9
30 22 30 31 0 12 -5 11 -27 -5 -52 -38 -79 -37 -118 2 -22 22 -35 45 -35 61
l0 26 95 0 95 0 0 31 c0 20 -10 40 -29 60 -37 37 -104 41 -145 8z m113 -6 c12
-10 23 -31 24 -48 l2 -30 -79 -3 -78 -3 6 28 c8 35 50 73 80 73 13 0 33 -8 45
-17z"/>
<path d="M3200 680 c0 -113 1 -120 20 -120 19 0 20 7 20 100 0 97 1 101 25
112 18 8 31 8 49 0 19 -8 25 -8 29 3 3 7 3 16 0 19 -10 10 -63 7 -84 -4 -13
-7 -19 -7 -19 0 0 5 -9 10 -20 10 -19 0 -20 -7 -20 -120z"/>
<path d="M3402 784 c-48 -33 -21 -91 58 -124 41 -17 51 -57 20 -82 -30 -24
-43 -23 -79 8 -23 19 -31 22 -31 10 0 -22 40 -46 76 -46 17 0 43 10 58 21 22
17 26 28 24 57 -3 33 -9 40 -58 67 -42 24 -55 36 -55 54 0 34 27 48 65 34 25
-9 30 -9 30 3 0 20 -79 19 -108 -2z"/>
<path d="M2604 774 c3 -9 6 -60 6 -115 0 -81 3 -99 15 -99 12 0 15 19 15 115
0 110 -1 115 -21 115 -15 0 -19 -4 -15 -16z"/>
<path d="M2733 673 c57 -132 55 -128 62 -121 5 5 105 229 105 235 0 2 -7 3
-15 3 -8 0 -19 -16 -25 -39 -5 -21 -21 -63 -34 -92 l-24 -54 -25 55 c-13 30
-30 72 -38 93 -10 27 -19 37 -35 37 -21 0 -20 -5 29 -117z"/>
<path d="M3580 675 c0 -108 1 -115 20 -115 19 0 20 7 20 115 0 108 -1 115 -20
115 -19 0 -20 -7 -20 -115z"/>
<path d="M3780 785 c0 -2 20 -50 45 -106 25 -56 45 -110 45 -121 0 -11 -13
-33 -30 -50 -35 -35 -36 -38 -11 -38 10 0 25 10 33 23 16 24 128 278 128 290
0 4 -6 7 -14 7 -8 0 -16 -14 -20 -32 -3 -18 -19 -60 -34 -93 l-28 -59 -31 74
c-17 41 -33 83 -36 93 -6 14 -47 26 -47 12z"/>
</g>
</svg>
