<?xml version="1.0" encoding="UTF-8"?>
<svg version="1.1" xmlns="http://www.w3.org/2000/svg" width="1155" height="1146">
<path d="M0 0 C-0.23074219 0.83015625 -0.46148437 1.6603125 -0.69921875 2.515625 C-19.15018395 72.23547769 -13.60127438 145.32906795 22.55541992 208.40698242 C24.65195245 211.97061639 26.81260281 215.49153101 29 219 C29.5367334 219.86270508 30.0734668 220.72541016 30.62646484 221.61425781 C47.19963899 248.15193005 64.92085578 273.58060024 85.984375 296.765625 C88.71647933 299.79423677 91.36239013 302.88897297 94 306 C101.57416323 302.56616027 106.47485482 295.32986824 111.5625 288.99609375 C113.62766652 286.45765991 115.74324184 283.97682883 117.89086914 281.50830078 C166.11460237 225.77424302 201.19561578 156.94615915 201.25 82.375 C201.25100708 81.41802216 201.25201416 80.46104431 201.25305176 79.47506714 C201.24236479 64.44431936 200.61823291 49.83482541 198 35 C197.8448291 34.10361816 197.6896582 33.20723633 197.52978516 32.28369141 C195.59457211 21.36877421 193.03626141 10.65921559 190 0 C198.28887879 0.77175776 202.01996181 4.25592976 207.26416016 10.50683594 C225.68710032 33.56522556 232.4454287 62.91074743 231 92 C230.95746094 92.88026855 230.91492188 93.76053711 230.87109375 94.66748047 C230.08135052 109.16888746 227.75812602 122.97929909 224 137 C223.70802734 138.09151367 223.70802734 138.09151367 223.41015625 139.20507812 C218.72613631 156.24521963 211.25065585 172.41872547 203 188 C202.61585938 188.72574219 202.23171875 189.45148438 201.8359375 190.19921875 C196.46773384 200.26027142 190.67865055 209.90042796 184.18945312 219.27685547 C183.05709168 220.91729207 181.94212173 222.56969347 180.828125 224.22265625 C171.77699476 237.5516017 161.88313931 250.22750377 151.35595703 262.41748047 C149.94011484 264.06989118 148.54422631 265.737526 147.15234375 267.41015625 C142.61841083 272.84978923 138.04157058 278.1367423 132.93896484 283.05981445 C131.1741405 284.82574987 129.55980757 286.63731413 127.94921875 288.54296875 C123.2508293 293.95442847 118.15003177 298.95827071 113.0625 304 C112.0824469 304.97502386 111.1026276 305.9502828 110.12304688 306.92578125 C107.75097687 309.28616618 105.3765914 311.64416905 103 314 C104.65 315.98 106.3 317.96 108 320 C111.25516563 318.91494479 111.76907717 318.34408114 113.84375 315.78125 C117.17090001 311.85996606 120.69776 308.21428716 124.34375 304.59375 C124.92020264 304.02060059 125.49665527 303.44745117 126.09057617 302.85693359 C128.49757998 300.46808215 130.90931479 298.08403228 133.32080078 295.69970703 C142.19149438 286.93668174 142.19149438 286.93668174 150.54101562 277.68164062 C152.88660459 274.97809029 155.43881317 272.49716776 158 270 C161.84137825 266.20533082 165.53226404 262.36645407 169.03125 258.25 C171.20312574 255.7678563 173.45013971 253.36814846 175.70898438 250.96533203 C181.44978411 244.85316418 186.87518553 238.64327802 192 232 C193.08085079 230.63578266 194.16300246 229.27259548 195.24609375 227.91015625 C206.30902286 213.93426096 216.09886538 199.43733197 225 184 C225.34272949 183.4131543 225.68545898 182.82630859 226.03857422 182.22167969 C234.27073224 168.01145383 240.16167757 152.80715075 243.875 136.8125 C244.06602295 135.99579834 244.2570459 135.17909668 244.45385742 134.33764648 C248.01368572 117.76870416 248.26855472 101.2440336 248.125 84.375 C248.11493714 82.28906686 248.10581721 80.20312895 248.09765625 78.1171875 C248.07593453 73.07800405 248.04159222 68.03905699 248 63 C251.73290694 66.62384969 254.52963953 70.08788485 256.9375 74.6875 C257.27668457 75.33106445 257.61586914 75.97462891 257.96533203 76.63769531 C263.52780499 87.59527017 267.55498695 99.78140865 269 112 C269.13277344 112.96421875 269.26554687 113.9284375 269.40234375 114.921875 C273.70798514 153.81778146 251.43824232 190.03611011 228.12695312 219.16162109 C223.30845271 225.11790037 218.3889195 230.95858127 213.1953125 236.59375 C211.9866843 237.91850973 210.78607087 239.2513487 209.6237793 240.61694336 C204.45523017 246.67116991 198.86569171 252.28624896 193.23022461 257.90014648 C191.56573723 259.5592732 189.90666553 261.22368051 188.24804688 262.88867188 C183.22765823 267.91225051 178.1814148 272.8575308 172.77709961 277.47241211 C169.7686548 280.05845953 166.89333339 282.78673262 164 285.5 C159.74446612 289.4720566 155.46292724 293.39249624 151.0546875 297.1953125 C148.33075213 299.58781847 145.66660014 302.04409419 143 304.5 C139.05154815 308.13492714 135.07341408 311.72616016 131.01171875 315.234375 C127.68500962 318.15412748 124.44647094 321.17202848 121.19921875 324.1796875 C119 326 119 326 116 327 C117.98 329.31 119.96 331.62 122 334 C126.82417888 329.92132002 131.47727242 325.71867394 136.0625 321.375 C146.43444442 311.63588496 157.20541307 302.50135791 168.44140625 293.77734375 C171.49056446 291.40783239 174.50207042 288.99471029 177.50708008 286.56958008 C183.3375774 281.86540285 189.23835103 277.28313874 195.25 272.8125 C206.04179848 264.77221005 216.20308975 256.21737471 226 247 C227.06347656 246.01773438 227.06347656 246.01773438 228.1484375 245.015625 C234.49670052 238.95238603 239.72533263 231.98893427 245 225 C245.41507813 224.45633789 245.83015625 223.91267578 246.2578125 223.35253906 C252.83140201 214.69554578 258.37509997 205.52686582 263.79833984 196.11132812 C264.33023926 195.19029297 264.86213867 194.26925781 265.41015625 193.3203125 C265.88590088 192.48773926 266.36164551 191.65516602 266.85180664 190.79736328 C267.23071045 190.2042334 267.60961426 189.61110352 268 189 C268.33 189 268.66 189 269 189 C270.50052891 215.30093731 259.30445483 238.31621586 242.1015625 257.64453125 C229.85695901 271.0681043 215.1769485 280.39234541 199.7487793 289.68212891 C184.88995762 298.64721445 170.71926213 308.37608207 157 319 C155.65035156 320.04414062 155.65035156 320.04414062 154.2734375 321.109375 C145.95424849 327.6671722 137.43068073 334.43936876 130 342 C137.77634441 349.30654936 145.65450337 356.34135907 154 363 C155.18826199 363.9678152 156.37571637 364.93662253 157.5625 365.90625 C165.46567338 372.33491266 173.52581586 378.341017 182 384 C181.43957711 387.67817783 180.4857904 390.21380426 178.4375 393.3125 C177.98246094 394.00988281 177.52742188 394.70726562 177.05859375 395.42578125 C176.70925781 395.94527344 176.35992188 396.46476562 176 397 C171.69050918 396.52800815 169.22728991 393.74541283 166.25 390.875 C165.25623274 389.93381302 164.26142074 388.99372804 163.265625 388.0546875 C162.74516602 387.56234619 162.22470703 387.07000488 161.68847656 386.56274414 C159.86495065 384.8750071 158.00144049 383.24193772 156.125 381.61328125 C151.90645437 377.94340783 147.81637264 374.149642 143.75 370.3125 C143.0185376 369.62349609 142.2870752 368.93449219 141.53344727 368.22460938 C135.23464903 362.26812965 129.07676708 356.18214454 123 350 C119.52100842 351.39159663 118.51947499 352.63251488 117 356 C120.2681483 359.29312827 123.53976696 362.58275765 126.81445312 365.86938477 C127.92475584 366.9846729 129.03415429 368.10086211 130.14257812 369.21801758 C135.65179829 374.76950162 141.14620566 380.24244569 147.10058594 385.32104492 C150.87016295 388.65309905 154.35007243 392.2882316 157.875 395.875 C159.37008161 397.39550816 160.86736644 398.91385411 162.3671875 400.4296875 C163.34341064 401.42331299 163.34341064 401.42331299 164.33935547 402.43701172 C165.93142515 404.08544452 165.93142515 404.08544452 168 405 C166.60807296 408.13010458 164.97357774 410.32336692 162.5625 412.75 C161.96566406 413.36359375 161.36882812 413.9771875 160.75390625 414.609375 C159 416 159 416 156 416 C154.59765625 414.70703125 154.59765625 414.70703125 153.0625 412.8125 C149.8155266 408.93129825 146.44764057 405.20167724 143 401.5 C139.16857753 397.36950522 135.38733706 393.20886145 131.69921875 388.94921875 C128.95085589 385.79649906 126.14247294 382.69820079 123.33984375 379.59375 C121.74520056 377.8260654 120.15419808 376.05509127 118.56640625 374.28125 C117.78136719 373.4046875 116.99632812 372.528125 116.1875 371.625 C115.47980469 370.83351563 114.77210938 370.04203125 114.04296875 369.2265625 C112.08291821 367.09036975 110.06595086 365.03345275 108 363 C106.35 364.65 104.7 366.3 103 368 C104.65748038 372.34956634 107.91184104 375.09070711 111.1875 378.25 C116.02103756 383.00058663 120.63856828 387.80827384 125 393 C125.80566406 393.928125 126.61132812 394.85625 127.44140625 395.8125 C132.7410538 401.94222438 137.80063292 408.22316651 142.6875 414.6875 C143.21690186 415.38294922 143.74630371 416.07839844 144.29174805 416.79492188 C148 421.75650263 148 421.75650263 148 424 C146.59248779 424.86916887 145.1735479 425.71985149 143.75 426.5625 C142.96109375 427.03816406 142.1721875 427.51382812 141.359375 428.00390625 C139 429 139 429 136.93359375 428.984375 C134.0462522 427.51445566 133.00606943 425.42490468 131.3125 422.6875 C127.16970103 416.21342117 122.69213044 410.09140435 118 404 C117.57315918 403.44554199 117.14631836 402.89108398 116.70654297 402.31982422 C111.57486427 395.67209565 106.33726297 389.11975497 100.9375 382.6875 C100.47230957 382.13006104 100.00711914 381.57262207 99.52783203 380.99829102 C97.11155795 378.08115282 97.11155795 378.08115282 94 376 C93.62875 376.85271484 93.62875 376.85271484 93.25 377.72265625 C91.79904407 380.36611659 90.0705707 382.24491353 88 384.4375 C75.44371645 398.17155895 64.76798324 413.8480536 54 429 C49.24518354 428.42365861 46.02951788 426.44931479 42 424 C43.51106761 419.16820297 46.2592024 416.07446839 49.5625 412.375 C50.65602398 411.12724432 51.7484623 409.87853639 52.83984375 408.62890625 C53.37851074 408.01418457 53.91717773 407.39946289 54.47216797 406.76611328 C56.58140317 404.32792098 58.60456304 401.82449228 60.625 399.3125 C64.46937905 394.57667073 68.51502362 390.06225727 72.64453125 385.57421875 C74.73751963 383.28685666 76.78443674 380.96981067 78.8125 378.625 C81.42640322 375.61467543 84.13821681 372.77506249 87 370 C85.60840337 366.52100842 84.36748512 365.51947499 81 364 C78.64351776 366.49782573 76.29025984 368.99866815 73.9375 371.5 C73.28072266 372.19609375 72.62394531 372.8921875 71.94726562 373.609375 C68.06420526 377.74110426 64.26917124 381.93231094 60.55200195 386.21386719 C58.60216772 388.4578482 56.61743607 390.668816 54.625 392.875 C53.86703125 393.71546875 53.1090625 394.5559375 52.328125 395.421875 C50.77604167 397.140625 49.22395833 398.859375 47.671875 400.578125 C43.07008743 405.68078741 38.50626246 410.81272681 34 416 C29.44764569 414.66107226 25.5693646 412.03757294 23 408 C22.97947744 404.79164016 24.30754985 403.65111546 26.44140625 401.23046875 C27.4741216 400.20835895 28.51480994 399.19425468 29.5625 398.1875 C30.06330078 397.69185547 30.56410156 397.19621094 31.08007812 396.68554688 C33.80373128 394.01684763 36.59857327 391.47680059 39.50390625 389.0078125 C46.12830483 383.26032413 52.19821018 376.90595053 58.375 370.6875 C59.67033827 369.38713601 60.96590937 368.08700391 62.26171875 366.78710938 C64.61911353 364.42159145 66.97524784 362.05483561 69.32958984 359.6862793 C70.88441365 358.12221582 72.44054951 356.55945049 74 355 C72.35 353.35 70.7 351.7 69 350 C65.00914912 351.5983464 62.36472923 354.39606945 59.421875 357.41796875 C58.89160706 357.95343826 58.36133911 358.48890778 57.81500244 359.04060364 C56.12182944 360.75153752 54.43547792 362.46898768 52.75 364.1875 C46.0177989 371.03187194 39.32494669 377.78223906 32 384 C29.14783088 386.56209558 26.33712444 389.16984551 23.515625 391.765625 C17.62237762 397 17.62237762 397 14 397 C12.39453125 394.91796875 12.39453125 394.91796875 10.8125 392.1875 C10.01779297 390.84751953 10.01779297 390.84751953 9.20703125 389.48046875 C8 387 8 387 8 384 C9.30664063 382.76416016 9.30664063 382.76416016 11.15625 381.5390625 C12.18335083 380.84200195 12.18335083 380.84200195 13.23120117 380.13085938 C14.35425659 379.38545898 14.35425659 379.38545898 15.5 378.625 C24.40190737 372.5315159 32.7380014 365.92733602 41 359 C41.97839844 358.18619873 41.97839844 358.18619873 42.9765625 357.35595703 C44.88633662 355.76527116 46.78844256 354.16595778 48.6875 352.5625 C49.53380981 351.85480469 49.53380981 351.85480469 50.3972168 351.1328125 C54.0278312 348.03199439 57.03037306 344.74095861 60 341 C45.01920663 327.82540157 29.84281007 315.58722672 13.24121094 304.49902344 C11.21935288 303.14671314 9.20577468 301.78322893 7.1953125 300.4140625 C-0.00209988 295.53499099 -7.33732418 290.9201835 -14.75 286.375 C-22.08713855 281.86871053 -29.19526437 277.28754 -36 272 C-36.86753906 271.34644531 -37.73507812 270.69289063 -38.62890625 270.01953125 C-44.10762474 265.79822356 -48.61699899 261.33156093 -53 256 C-53.71542969 255.22462891 -53.71542969 255.22462891 -54.4453125 254.43359375 C-70.4980401 236.93348907 -79.80349965 212.70323965 -79 189 C-75.52837483 192.13367936 -73.48146774 195.40590217 -71.25 199.5 C-67.49180828 206.24057778 -63.44406907 212.68351722 -59 219 C-58.37448242 219.89259521 -58.37448242 219.89259521 -57.73632812 220.80322266 C-47.00565451 235.98424458 -34.73003484 249.62170961 -20 261 C-18.16275459 262.55789816 -16.32964216 264.12067936 -14.5 265.6875 C-9.40280975 269.95276542 -4.12179978 273.90056833 1.25 277.8125 C9.47771456 283.80534527 17.42069607 290.07135436 25.25878906 296.56298828 C27.7815772 298.64503132 30.3309177 300.69406795 32.875 302.75 C37.25761049 306.33756421 41.48321914 310.07101793 45.66796875 313.88671875 C47.75034736 315.77376537 49.86503064 317.61058233 52 319.4375 C56.20551874 323.05322038 59.94304238 327.08482296 63.703125 331.15625 C65.79460909 333.255707 65.79460909 333.255707 68.1875 332.87890625 C70.24419046 331.88158868 71.50664806 330.71735473 73 329 C71.63678738 325.86664562 70.18617343 324.04593976 67.5625 321.875 C64.14263089 318.9826969 60.80439086 316.02404616 57.5 313 C54.38092989 310.15475772 51.25244609 307.3280042 48.0625 304.5625 C44.11254739 301.13163767 40.268129 297.58869729 36.41992188 294.04492188 C33.6654424 291.51274592 30.89266213 289.00972265 28.0625 286.5625 C23.3962313 282.51453605 18.88403957 278.30192892 14.35546875 274.1015625 C12.24488164 272.14540859 10.12447707 270.20158519 7.98828125 268.2734375 C-1.91150265 259.31208438 -11.75811984 250.0997254 -20.38671875 239.88671875 C-22.23962096 237.71976532 -24.18376036 235.65064426 -26.125 233.5625 C-32.02676261 227.02516296 -37.27055334 219.98635222 -42.54296875 212.94042969 C-43.74547503 211.33896857 -44.96433868 209.74980379 -46.1875 208.1640625 C-67.06074754 180.59398137 -82.90107821 146.78174337 -78.69970703 111.4765625 C-76.30676684 96.2105186 -71.2660644 74.49543657 -58.7578125 64.14453125 C-58.17773438 63.76683594 -57.59765625 63.38914063 -57 63 C-57.0721875 63.89976563 -57.144375 64.79953125 -57.21875 65.7265625 C-60.83119094 115.79900779 -51.71841511 162.855664 -22.20458984 204.30566406 C-20.9907479 206.0130137 -19.80060577 207.73506783 -18.61328125 209.4609375 C-12.20935482 218.68902011 -5.17511314 227.36493829 2 236 C2.47050781 236.57105469 2.94101562 237.14210937 3.42578125 237.73046875 C10.36858803 246.1538741 17.70624887 254.15551589 25.20166016 262.08837891 C26.98186155 263.98071897 28.74889883 265.88443682 30.51171875 267.79296875 C36.90474412 274.70698012 43.38617886 281.49691485 50.11914062 288.08227539 C52.97033224 290.88854277 55.68251078 293.74918721 58.2890625 296.78515625 C62.59394433 301.76777457 67.26058507 306.36932073 71.9375 311 C73.24944336 312.30517578 73.24944336 312.30517578 74.58789062 313.63671875 C76.72297449 315.76013549 78.86037205 317.88116378 81 320 C82.98 318.35 84.96 316.7 87 315 C81.99100226 308.99076558 76.59058141 303.5234438 71.00976562 298.04882812 C67.0653877 294.14983135 63.32257872 290.15597033 59.70385742 285.95336914 C56.93515748 282.77922267 54.02168978 279.74434916 51.125 276.6875 C45.46712364 270.66435889 40.13565139 264.47731811 35 258 C34.08207549 256.87260041 33.1627203 255.74636466 32.2421875 254.62109375 C-12.06845433 200.23885194 -46.03086454 136.7435659 -39.71582031 64.76074219 C-36.6942046 41.53561554 -25.93106746 17.41702089 -8 2 C-4.89617302 0.09135983 -3.85639217 0 0 0 Z M91.375 324.5 C90.59125 325.325 89.8075 326.15 89 327 C90.49097658 330.7952131 92.75700849 332.61042731 96 335 C97.98 332.69 99.96 330.38 102 328 C101.05125 327.01 100.1025 326.02 99.125 325 C98.32449219 324.1646875 98.32449219 324.1646875 97.5078125 323.3125 C94.68750184 320.85751455 94.01414188 321.98653154 91.375 324.5 Z M81 335 C79.02 337.31 77.04 339.62 75 342 C76.98 343.98 78.96 345.96 81 348 C83.88437779 346.70700306 85.87219421 345.34058637 88 343 C86.50902342 339.2047869 84.24299151 337.38957269 81 335 Z M108 335 C106.02 337.31 104.04 339.62 102 342 C103.98 343.98 105.96 345.96 108 348 C110.88437779 346.70700306 112.87219421 345.34058637 115 343 C113.50902342 339.2047869 111.24299151 337.38957269 108 335 Z M91.375 351.5 C90.59125 352.325 89.8075 353.15 89 354 C90.49097658 357.7952131 92.75700849 359.61042731 96 362 C97.98 359.69 99.96 357.38 102 355 C101.05125 354.01 100.1025 353.02 99.125 352 C98.32449219 351.1646875 98.32449219 351.1646875 97.5078125 350.3125 C94.68750184 347.85751455 94.01414188 348.98653154 91.375 351.5 Z " fill="#FBFBFB" transform="translate(482,0)"/>
<path d="M0 0 C0.65484375 0.60199219 1.3096875 1.20398438 1.984375 1.82421875 C28.18305259 26.58820686 43.73763779 65.53323451 45.12426758 101.19604492 C46.11364215 145.63826041 35.51494275 184.04747467 4.09765625 216.8984375 C-8.57716465 229.79172131 -23.91457938 239.00252428 -40 247 C-40.9192627 247.52456787 -41.83852539 248.04913574 -42.78564453 248.58959961 C-48.78449408 251.1175564 -55.51665438 250.36577204 -61.90234375 250.29296875 C-63.34965066 250.287366 -64.7969633 250.28309911 -66.24427795 250.28010559 C-70.03374232 250.26871009 -73.82285584 250.23928949 -77.61218262 250.20599365 C-81.48684952 250.17517775 -85.36157371 250.16157577 -89.23632812 250.14648438 C-96.82437783 250.11441388 -104.41213955 250.06328279 -112 250 C-111.67 249.01 -111.34 248.02 -111 247 C-108.2890625 245.9296875 -108.2890625 245.9296875 -104.625 244.875 C-69.88633536 234.09738849 -40.04224513 209.84734871 -22.75 177.875 C-3.90968041 141.64049461 -2.79204063 98.79856744 -14 60 C-18.4112288 46.04937151 -25.36005239 32.05216923 -35 21 C-35.69996094 20.18015625 -36.39992188 19.3603125 -37.12109375 18.515625 C-56.68264441 -3.85980557 -82.95747579 -16.10068441 -111.6875 -22.3125 C-112.36127686 -22.45969482 -113.03505371 -22.60688965 -113.72924805 -22.75854492 C-128.63465867 -25.72712047 -143.66184335 -26.36978104 -158.8125 -26.3125 C-160.13107498 -26.3122583 -160.13107498 -26.3122583 -161.47628784 -26.31201172 C-177.47663895 -26.29175101 -193.14183089 -25.17113907 -209 -23 C-208.59624146 -21.66243652 -208.59624146 -21.66243652 -208.18432617 -20.29785156 C-206.07741282 -13.15561078 -204.29379429 -6.14281834 -203.3125 1.25 C-203.19583984 2.05695312 -203.07917969 2.86390625 -202.95898438 3.6953125 C-198.80756597 33.06014774 -199.85924437 63.04752357 -199.89860606 92.62870693 C-199.90494675 98.21529959 -199.90545173 103.80189306 -199.90663147 109.38848877 C-199.9097137 119.92027005 -199.91788426 130.4520407 -199.92798096 140.98381734 C-199.93923981 152.99391023 -199.94467693 165.00400368 -199.94967639 177.01410055 C-199.96007024 201.67607425 -199.97837603 226.33803341 -200 251 C-220.79 251.99 -241.58 252.98 -263 254 C-263 249.8997683 -262.48634738 248.59121241 -260.6875 245.0625 C-255.30452168 233.64082646 -253.84441127 221.18993137 -253.85955811 208.6829834 C-253.85658698 207.89664001 -253.85361586 207.11029662 -253.8505547 206.30012465 C-253.84195337 203.69160844 -253.84036673 201.08313859 -253.83886719 198.47460938 C-253.83423256 196.592686 -253.82920704 194.71076354 -253.82382202 192.82884216 C-253.81074927 187.730752 -253.80426191 182.63267499 -253.79981136 177.53457069 C-253.79686947 174.33773755 -253.79276239 171.14090791 -253.78830719 167.94407654 C-253.77463941 157.90872926 -253.76497191 147.87339009 -253.7611053 137.83803415 C-253.75664047 126.31767941 -253.73916309 114.79744426 -253.7101047 103.27712584 C-253.6883438 94.33395005 -253.67839324 85.39080753 -253.67706418 76.44760561 C-253.67602545 71.12547982 -253.67032091 65.80346653 -253.65224457 60.48136902 C-253.49798834 28.62443951 -253.49798834 28.62443951 -257 -3 C-257.1499366 -3.90521896 -257.2998732 -4.81043793 -257.45435333 -5.74308777 C-259.54993669 -18.24888807 -263.02527824 -30.00507101 -267.30737305 -41.93554688 C-267.98012769 -43.94076834 -268.51648443 -45.94179576 -269 -48 C-258.47076076 -50.44466418 -247.95714929 -52.14744002 -237.25 -53.5625 C-236.44086151 -53.67049927 -235.63172302 -53.77849854 -234.79806519 -53.88977051 C-220.56028932 -55.77963402 -206.34858169 -57.25935839 -192 -58 C-190.25275635 -58.0925708 -190.25275635 -58.0925708 -188.47021484 -58.18701172 C-118.63359718 -61.68301555 -51.93217152 -49.59096707 0 0 Z " fill="#FDFDFD" transform="translate(689,630)"/>
<path d="M0 0 C12.33963584 12.70729724 9.75545568 47.13533844 10.09765625 63.16015625 C9.43765625 63.16015625 8.77765625 63.16015625 8.09765625 63.16015625 C6.90625 61.54296875 6.90625 61.54296875 5.53515625 59.28515625 C1.93708742 53.70376168 -2.36072991 48.98410843 -6.90234375 44.16015625 C-7.43214844 43.55429687 -7.96195313 42.9484375 -8.5078125 42.32421875 C-25.37452482 23.8532176 -52.26511144 15.76139165 -76.44970703 14.26220703 C-98.67773888 13.33732974 -121.03322977 18.14641502 -138.125 33.10546875 C-147.91049047 42.43369331 -152.96150692 53.5094157 -153.40234375 67.16015625 C-152.92386879 81.51440518 -147.05149195 93.97605729 -136.69140625 103.81640625 C-115.49945709 121.62476689 -89.33566299 133.60326453 -64.65234375 145.7421875 C-44.24297647 155.78901251 -23.96098955 166.20466379 -5.90234375 180.16015625 C-4.95746094 180.88332031 -4.01257813 181.60648438 -3.0390625 182.3515625 C15.62871459 197.11151638 31.42793452 215.56887535 34.86621094 239.96484375 C37.11967248 261.33944943 33.75733786 280.47564054 23.09765625 299.16015625 C22.66630371 300.17843506 22.23495117 301.19671387 21.79052734 302.24584961 C17.44723764 306.94628924 12.16947392 306.78722499 6.01171875 307.49609375 C4.72204193 307.66517242 3.43236511 307.8342511 2.10360718 308.00845337 C-1.32069976 308.45658008 -4.74825266 308.87170752 -8.1774292 309.28063965 C-10.966655 309.61870306 -13.75269762 309.97956683 -16.53886986 310.34181786 C-22.31244289 311.09214374 -28.08837858 311.82411335 -33.86865234 312.52099609 C-34.89139252 312.64501801 -35.91413269 312.76903992 -36.96786499 312.89682007 C-39.96247889 313.1655527 -42.89739135 313.20592263 -45.90234375 313.16015625 C-42.68938085 309.60101553 -38.65618812 307.44718813 -34.59375 304.9765625 C-31.8507628 303.24975167 -31.8507628 303.24975167 -29.6796875 300.9375 C-29.09316406 300.35097656 -28.50664062 299.76445313 -27.90234375 299.16015625 C-27.24234375 299.16015625 -26.58234375 299.16015625 -25.90234375 299.16015625 C-25.62261719 298.57621094 -25.34289062 297.99226563 -25.0546875 297.390625 C-23.97530325 295.30137617 -22.77627926 293.42142491 -21.46484375 291.47265625 C-14.9534233 281.17731299 -13.27672291 268.6505976 -15.55078125 256.7734375 C-18.34303424 246.6903017 -23.48096106 239.35664856 -30.90234375 232.16015625 C-30.90234375 231.50015625 -30.90234375 230.84015625 -30.90234375 230.16015625 C-31.45148438 229.91910156 -32.000625 229.67804688 -32.56640625 229.4296875 C-35.43841864 227.8688112 -37.74702575 225.92007488 -40.27734375 223.84765625 C-57.55443545 210.17884605 -78.19324658 200.2495658 -98.02734375 190.84765625 C-136.57773786 172.55489004 -179.77648181 150.99109488 -195.49609375 108.38671875 C-203.1195804 86.21205321 -202.47792042 61.03648952 -192.21484375 39.91015625 C-178.61374909 13.47639035 -154.07596699 -3.15980455 -126.32226562 -12.11279297 C-88.03551622 -23.61581352 -34.56524865 -21.91148333 0 0 Z " fill="#FDFDFD" transform="translate(218.90234375,594.83984375)"/>
<path d="M0 0 C12.61669715 -0.06027214 25.20410951 0.03833701 37.8125 0.5 C39.21027502 0.54850786 40.60806156 0.59668487 42.00585938 0.64453125 C45.33736652 0.75980831 48.66872295 0.87828586 52 1 C52.02285607 30.92004874 52.04053205 60.84009719 52.05106533 90.76015279 C52.0523159 94.29957453 52.05361024 97.83899625 52.05493164 101.37841797 C52.05519395 102.0829967 52.05545626 102.78757544 52.05572652 103.51350504 C52.06006736 114.89348505 52.06794613 126.27345996 52.0771528 137.65343696 C52.08653354 149.34688222 52.09206494 161.04032484 52.09408849 172.73377371 C52.0953884 179.29481601 52.09842856 185.85584678 52.10573006 192.41688538 C52.11255726 198.60230618 52.11460341 204.78771078 52.11310768 210.97313499 C52.11338101 213.23367081 52.11534614 215.49420722 52.11920547 217.75473976 C52.19556581 264.82139279 44.14345954 306.46909695 10 341 C8.74509766 342.27037109 8.74509766 342.27037109 7.46484375 343.56640625 C6.65144531 344.30761719 5.83804687 345.04882812 5 345.8125 C4.29875 346.45832031 3.5975 347.10414063 2.875 347.76953125 C-4.24634585 350.81738987 -14.33530081 347.55291329 -21.77734375 346.22265625 C-22.75111465 346.05124619 -23.72488556 345.87983612 -24.72816467 345.70323181 C-26.76458215 345.34329512 -28.80058633 344.98101272 -30.83618164 344.61645508 C-33.95257092 344.05980804 -37.07086582 343.5148845 -40.18945312 342.97070312 C-42.17720825 342.61789057 -44.16484305 342.26439924 -46.15234375 341.91015625 C-47.54609474 341.66786034 -47.54609474 341.66786034 -48.96800232 341.42066956 C-50.26569298 341.18548866 -50.26569298 341.18548866 -51.58959961 340.94555664 C-52.34695908 340.81089493 -53.10431854 340.67623322 -53.8846283 340.53749084 C-56.12860908 339.96732196 -57.97257296 339.10627867 -60 338 C-59.44054688 337.79246094 -58.88109375 337.58492187 -58.3046875 337.37109375 C-46.98692181 333.02230597 -36.12870459 328.10011816 -27 320 C-26.41089844 319.50371094 -25.82179688 319.00742187 -25.21484375 318.49609375 C-8.79780586 303.57491353 -2.36119683 280.36519479 -1 259 C-0.87011039 255.24066456 -0.84556351 251.48568057 -0.84178162 247.7243042 C-0.83437465 246.12246446 -0.83437465 246.12246446 -0.82681805 244.48826432 C-0.81158435 240.9462792 -0.80312116 237.40431199 -0.79467773 233.86230469 C-0.78508807 231.3088414 -0.77507737 228.75537967 -0.76467896 226.20191956 C-0.74330882 220.72311682 -0.72484223 215.2443168 -0.70907402 209.7654953 C-0.68627129 201.84423706 -0.65814349 193.9230046 -0.62875474 186.00176838 C-0.58120556 173.14718646 -0.53790745 160.29259392 -0.49731445 147.43798828 C-0.45789476 134.95783667 -0.41645324 122.47769445 -0.37231445 109.99755859 C-0.36959018 109.22707942 -0.36686591 108.45660025 -0.36405908 107.66277322 C-0.35037854 103.79714626 -0.33665848 99.93151945 -0.32291877 96.0658927 C-0.20915333 64.0439479 -0.10230036 32.02198355 0 0 Z " fill="#FDFDFD" transform="translate(1103,579)"/>
<path d="M0 0 C4.79329068 -0.02549205 9.58653863 -0.04321541 14.37988281 -0.05493164 C15.9967518 -0.05983604 17.61361672 -0.06655749 19.23046875 -0.07543945 C29.72245828 -0.13145824 40.18053672 0.0791136 50.66455078 0.50610352 C51.85665665 0.55335823 53.04876251 0.60061295 54.2769928 0.64929962 C57.18472231 0.76476524 60.09238496 0.88169263 63 1 C62.99723462 2.97457121 62.99723462 2.97457121 62.99441338 4.98903275 C62.95099544 36.31398394 62.91806799 67.63892711 62.89786934 98.96390142 C62.89536825 102.82863615 62.89277958 106.69337083 62.89013672 110.55810547 C62.88934979 111.71208999 62.88934979 111.71208999 62.88854696 112.88938734 C62.8798702 125.30778307 62.86411544 137.72616008 62.84569441 150.14454475 C62.8269191 162.90926024 62.81586723 175.67396599 62.81182301 188.43869472 C62.80909369 196.30028285 62.80050812 204.16181803 62.78416707 212.02338985 C62.77223622 218.07556121 62.77110773 224.12768808 62.77378464 230.17987251 C62.77323896 232.6451379 62.7693221 235.11040548 62.76158905 237.5756588 C62.67083935 268.02568535 63.68538921 298.73985485 86 322 C88.26721605 324.15421975 90.56649395 326.23003042 92.95703125 328.24609375 C95.08097226 330.06951538 97.03086746 332.01186683 99 334 C87.02530884 333.12930377 75.10774428 331.96692392 63.18701172 330.53808594 C60.80371143 330.26169498 58.41813106 330.0043295 56.03076172 329.765625 C36.13041856 327.76005844 36.13041856 327.76005844 30.93286133 323.46606445 C29.11638296 320.64823967 28.01663981 318.18126242 27 315 C26.16291951 313.30395955 25.31097237 311.61508843 24.4375 309.9375 C10.2586574 277.0090037 9.87140634 242.97377349 9.80076981 207.74991226 C9.78988727 202.46222052 9.76958993 197.17458834 9.74765015 191.88693237 C9.6864065 176.86328923 9.63204298 161.83965091 9.59863281 146.81591797 C9.58003257 138.48720037 9.55079074 130.15858475 9.5106281 121.82994258 C9.48997238 117.45440464 9.47416216 113.07899266 9.47182083 108.70340347 C9.45940424 90.81010548 9.08619687 73.03562065 7.63427734 55.19482422 C7.57456292 54.45123791 7.5148485 53.7076516 7.45332456 52.94153237 C6.15618523 37.16464939 3.69947925 21.59043433 1 6 C0.66528998 4.00022994 0.33154109 2.00029788 0 0 Z " fill="#FDFDFD" transform="translate(882,574)"/>
<path d="M0 0 C3.2105234 2.75620405 5.04877671 6.31917239 7.125 9.9375 C11.29199322 17.03501283 15.89557793 23.5331877 21 30 C21.70382813 30.8971875 22.40765625 31.794375 23.1328125 32.71875 C25.06879849 35.16265626 27.02731549 37.58566971 29 40 C29.76763672 40.95519531 29.76763672 40.95519531 30.55078125 41.9296875 C34.29462241 46.47073473 38.49151494 50.2311268 43 54 C43.79019531 54.68964844 44.58039062 55.37929688 45.39453125 56.08984375 C62.66601685 70.82368979 81.23910048 78.36659417 103 84 C99.73735721 85.84876256 96.70419311 86.57928505 93.02563477 87.25268555 C91.21839684 87.5876429 91.21839684 87.5876429 89.37464905 87.92936707 C88.07667892 88.16279312 86.7787088 88.39621918 85.44140625 88.63671875 C84.09141631 88.88260449 82.74147704 89.12876858 81.3915863 89.37519836 C78.56543171 89.88952306 75.73846393 90.39906392 72.91088867 90.90551758 C69.29315017 91.5540991 65.67813076 92.21664939 62.06364536 92.88309002 C59.27750327 93.39481791 56.48986825 93.89800043 53.70173454 94.39875221 C51.72160754 94.75626588 49.74293552 95.12180809 47.76429749 95.48747253 C46.55632004 95.70132095 45.34834259 95.91516937 44.10375977 96.13549805 C43.0432692 96.32710007 41.98277863 96.51870209 40.89015198 96.71611023 C36.22418476 97.17443227 32.85889627 96.15735949 28.84765625 93.84765625 C27.69305908 93.18503784 27.69305908 93.18503784 26.51513672 92.5090332 C25.30108154 91.79299927 25.30108154 91.79299927 24.0625 91.0625 C23.22219238 90.57031982 22.38188477 90.07813965 21.51611328 89.57104492 C15.13252637 85.78060046 8.94488006 81.8015353 3.046875 77.2890625 C0.10811998 74.98828138 0.10811998 74.98828138 -2.859375 73.3359375 C-5.80187659 71.40777652 -7.27934038 70.08836341 -9 67 C-10.40729753 60.09991705 -9.62924143 52.95178515 -9 46 C-8.91637207 45.05012207 -8.83274414 44.10024414 -8.74658203 43.12158203 C-5.72036808 11.44073616 -5.72036808 11.44073616 0 0 Z " fill="#FCFCFC" transform="translate(9,833)"/>
<path d="M0 0 C5.18643485 4.98408934 7.6838693 11.21780091 8 18.375 C7.45395485 28.65885041 3.66309966 34.79504162 -3.4375 41.875 C5.05350748 53.86973273 5.05350748 53.86973273 17.8125 59.5 C19.66875 59.685625 19.66875 59.685625 21.5625 59.875 C21.5625 61.855 21.5625 63.835 21.5625 65.875 C15.4353059 69.00377997 10.34662068 69.94021437 3.5625 68.4296875 C-4.56910787 65.31475706 -9.66738654 55.9847585 -14.34375 49.046875 C-18.16585321 45.082156 -23.1515122 45.50702028 -28.4375 44.875 C-28.4375 52.135 -28.4375 59.395 -28.4375 66.875 C-32.7275 66.875 -37.0175 66.875 -41.4375 66.875 C-41.46255615 65.22685303 -41.4876123 63.57870605 -41.51342773 61.88061523 C-41.59807284 56.37254105 -41.68629644 50.86453154 -41.77683926 45.35655117 C-41.83149089 42.02426509 -41.88438972 38.69197341 -41.93481445 35.35961914 C-42.19223827 15.09547071 -42.19223827 15.09547071 -43.4375 -5.125 C-28.47719567 -8.16707189 -12.7718461 -9.91282734 0 0 Z M-29.4375 1.875 C-29.4544493 4.39816057 -29.40864756 6.89029688 -29.31640625 9.41015625 C-29.29279526 10.16340683 -29.26918427 10.91665741 -29.24485779 11.69273376 C-29.16804502 14.10783929 -29.08409728 16.5226382 -29 18.9375 C-28.9467969 20.57094834 -28.8940564 22.20441182 -28.84179688 23.83789062 C-28.71240625 27.85045601 -28.57661453 31.86276044 -28.4375 35.875 C-24.96379893 37.61185053 -21.23559188 37.33615112 -17.4375 36.875 C-12.48850897 34.35381589 -8.65327909 31.14632312 -6.6796875 25.8359375 C-5.2207995 20.4620589 -5.08471709 15.98657703 -7.4375 10.875 C-10.45885708 5.94801575 -13.88143543 3.03259812 -19.40625 1.30078125 C-24.74405805 0.0792822 -24.74405805 0.0792822 -29.4375 1.875 Z " fill="#FBFBFB" transform="translate(646.4375,1077.125)"/>
<path d="M0 0 C4.61620045 -0.99075844 8.40386249 -1.18545186 13 0 C16.99501006 3.73814895 19.69271045 8.03043849 22.54492188 12.671875 C24.60965552 15.97544883 26.83319574 19.16126213 29.05273438 22.36206055 C30.66969462 24.69655853 32.26726767 27.04303728 33.859375 29.39453125 C37.19859577 34.2912244 40.60115302 39.14450431 44 44 C44.33 29.48 44.66 14.96 45 0 C48.96 0 52.92 0 57 0 C56.84152588 1.85262451 56.68305176 3.70524902 56.51977539 5.61401367 C55.96846205 12.80343356 55.78205531 19.96779598 55.68359375 27.17578125 C55.66281265 28.46695358 55.64203156 29.75812592 55.62062073 31.08842468 C55.56618798 34.47316931 55.51644133 37.85796608 55.46777344 41.24279785 C55.41697184 44.71594725 55.36159632 48.18902366 55.30664062 51.66210938 C55.20002742 58.44134269 55.09837972 65.22064233 55 72 C46.74381501 72.52306872 46.74381501 72.52306872 44.03881836 70.62084961 C43.64315674 69.97124268 43.24749512 69.32163574 42.83984375 68.65234375 C42.36401855 67.91250244 41.88819336 67.17266113 41.39794922 66.41040039 C40.67502686 65.1863147 40.67502686 65.1863147 39.9375 63.9375 C38.83683587 62.20432979 37.73386018 60.47262598 36.62890625 58.7421875 C36.05027832 57.81631836 35.47165039 56.89044922 34.87548828 55.93652344 C31.53327815 50.70349773 27.94090289 45.64446721 24.375 40.5625 C23.02860197 38.62633259 21.68224499 36.69013662 20.3359375 34.75390625 C18.27566449 31.79353369 16.17956044 28.87380607 14 26 C13.9751034 31.10457004 13.95704765 36.20910397 13.94506836 41.3137207 C13.94006925 43.04679989 13.93326776 44.77987493 13.92456055 46.51293945 C13.91229973 49.01775138 13.90672734 51.52250708 13.90234375 54.02734375 C13.89718246 54.79022202 13.89202118 55.55310028 13.88670349 56.33909607 C13.88616356 61.6296333 14.34172193 66.74971989 15 72 C10.38 72 5.76 72 1 72 C1.24169922 69.45152344 1.24169922 69.45152344 1.48828125 66.8515625 C2.16654385 57.98973145 2.1860618 49.13609069 2.18530273 40.25195312 C2.18750111 37.37354998 2.20575671 34.49552386 2.22460938 31.6171875 C2.30916397 19.29300536 2.30916397 19.29300536 0.4309082 7.14306641 C-0.05629049 4.72004651 -0.06858129 2.46513151 0 0 Z " fill="#FCFCFC" transform="translate(267,1072)"/>
<path d="M0 0 C4.06735709 1.3557857 4.51122129 3.16171583 6.58203125 6.87109375 C7.087024 7.76563011 7.087024 7.76563011 7.60221863 8.67823792 C8.68102727 10.59324991 9.74707573 12.51501501 10.8125 14.4375 C11.86663412 16.32052176 12.92335847 18.20206542 13.98092651 20.0831604 C14.67149892 21.31352087 15.35960493 22.54526902 16.04519653 23.77841187 C18.53195983 28.23630642 21.1822631 32.564332 23.9753418 36.83618164 C25.21333943 39.4505188 25.30953587 41.13622001 25 44 C23.69179017 46.59574816 22.34569905 48.98142413 20.8125 51.4375 C19.90161694 52.93445381 18.99150199 54.43187521 18.08203125 55.9296875 C17.34267334 57.1377002 17.34267334 57.1377002 16.58837891 58.37011719 C14.86113372 61.22992123 13.18300624 64.11496914 11.51171875 67.0078125 C10.92865967 68.01271729 10.34560059 69.01762207 9.74487305 70.05297852 C8.58953598 72.04568035 7.43858975 74.04093494 6.29223633 76.03881836 C5.76267334 76.94510986 5.23311035 77.85140137 4.6875 78.78515625 C4.21699219 79.59863525 3.74648438 80.41211426 3.26171875 81.25024414 C2.63716797 82.11637329 2.63716797 82.11637329 2 83 C1.34 83 0.68 83 0 83 C-0.37697021 82.32122803 -0.75394043 81.64245605 -1.14233398 80.94311523 C-2.90480674 77.77313265 -4.67093164 74.60520197 -6.4375 71.4375 C-7.07115479 70.29829102 -7.70480957 69.15908203 -8.35766602 67.98535156 C-11.14609768 62.99526571 -13.93723627 58.0230454 -16.96875 53.17578125 C-17.3922876 52.49781494 -17.8158252 51.81984863 -18.25219727 51.12133789 C-19.02089111 49.90773577 -19.80197908 48.70186213 -20.59741211 47.50561523 C-22.12330689 45.09831879 -23.05337761 43.56826538 -22.78198242 40.67895508 C-21.86565476 37.53975326 -20.52190315 35.0677733 -18.8671875 32.24609375 C-18.22523438 31.14330078 -17.58328125 30.04050781 -16.921875 28.90429688 C-16.23976532 27.74859049 -15.55747304 26.59299185 -14.875 25.4375 C-14.22273437 24.32052734 -13.57046875 23.20355469 -12.8984375 22.05273438 C-11.59126655 19.81576028 -10.2810677 17.58055266 -8.96777344 15.34716797 C-5.96493484 10.23936186 -2.98320641 5.11929368 0 0 Z " fill="#FCFCFC" transform="translate(576,83)"/>
<path d="M0 0 C4.62 0 9.24 0 14 0 C14.7741478 6.20871191 15.1554076 12.27850662 15.2109375 18.53125 C15.23899152 20.32943641 15.26765587 22.12761339 15.296875 23.92578125 C15.33811186 26.71663283 15.37506883 29.50730513 15.40136719 32.29833984 C15.42915641 35.02216307 15.47499772 37.74522572 15.5234375 40.46875 C15.52669037 41.29088989 15.52994324 42.11302979 15.53329468 42.96008301 C15.660384 49.02915844 16.31397982 55.82757169 20.38070679 60.6307373 C24.40650797 64.17159253 27.22187509 64.86828704 32.375 65.25 C36.52331296 64.96390945 38.60775597 64.41226242 42 62 C47.49806632 54.22566418 47.16232442 45.18039337 47.31640625 36.03515625 C47.33718735 35.00184677 47.35796844 33.96853729 47.37937927 32.90391541 C47.44443478 29.62350716 47.50355404 26.34302315 47.5625 23.0625 C47.60572711 20.83007049 47.64934271 18.59764846 47.69335938 16.36523438 C47.80007075 10.91023266 47.90146058 5.4551552 48 0 C52.29 0 56.58 0 61 0 C61.04990255 6.17064268 61.08595473 12.34116464 61.10986328 18.51196289 C61.11984358 20.60573374 61.13343259 22.69949094 61.15087891 24.79321289 C61.42370968 58.40756964 61.42370968 58.40756964 51.25 68.8125 C42.76664111 74.5224531 34.06329037 74.91772145 24 74 C16.76829054 72.58044222 11.90517779 69.92670013 7.3671875 64.0859375 C2.65940772 56.90321063 1.86328879 49.80780238 1.71875 41.3671875 C1.70034058 40.5347049 1.68193115 39.70222229 1.66296387 38.84451294 C1.60444893 36.18807776 1.55160745 33.53157775 1.5 30.875 C1.2143683 15.4123602 1.2143683 15.4123602 0 0 Z " fill="#FCFCFC" transform="translate(166,1072)"/>
<path d="M0 0 C1 1 1 1 1.09765625 4.16015625 C1.08605469 5.44792969 1.07445312 6.73570313 1.0625 8.0625 C1.05347656 9.35285156 1.04445313 10.64320312 1.03515625 11.97265625 C1.02355469 12.97167969 1.01195312 13.97070312 1 15 C0.01 15 -0.98 15 -2 15 C-2.598125 14.236875 -3.19625 13.47375 -3.8125 12.6875 C-6.40529534 9.50206573 -8.10958237 8.32127391 -12 7 C-16.53197145 6.79982458 -20.00540271 7.4612598 -24 9.625 C-26.68765883 12.81659486 -27.07284519 14.84782393 -27 19 C-24.16910349 23.46946961 -21.04835445 25.29097658 -16.3125 27.5 C-15.05808482 28.10310927 -13.80417809 28.70727723 -12.55078125 29.3125 C-10.79314453 30.1478125 -10.79314453 30.1478125 -9 31 C-2.90746487 33.95395642 2.6671381 36.85992891 6 43 C8.09056293 49.40569922 8.85424244 55.63349743 6.234375 61.96484375 C2.67725941 67.82958179 -2.82245402 71.74522822 -9.39453125 73.56640625 C-19.66925455 75.27629274 -32.10094946 74.93270036 -41 69 C-41.29296875 65.7421875 -41.29296875 65.7421875 -41.1875 61.875 C-41.16042969 60.59367187 -41.13335938 59.31234375 -41.10546875 57.9921875 C-41.07066406 57.00476562 -41.03585937 56.01734375 -41 55 C-38.65998847 56.10608621 -36.49752204 57.3148668 -34.30078125 58.69140625 C-26.55414057 63.54191721 -21.17132707 66.16771902 -12.125 64.125 C-8.32298768 61.53963162 -7.38114528 59.57998613 -6.25 55.2109375 C-5.83351915 52.87545171 -5.83351915 52.87545171 -6.875 50.25 C-11.38249415 45.47735914 -15.82855985 42.98195629 -21.875 40.625 C-29.32616531 37.61838944 -35.85615462 34.03769077 -39.5625 26.625 C-41.71365401 20.83267245 -41.88857444 15.66572331 -39.9375 9.8125 C-30.62296737 -3.70859576 -14.75068602 -4.2365702 0 0 Z " fill="#FBFBFB" transform="translate(742,1072)"/>
<path d="M0 0 C14.52 0 29.04 0 44 0 C45 9 45 9 44 13 C42.09927734 12.55527344 42.09927734 12.55527344 40.16015625 12.1015625 C34.95112584 10.94400019 29.71693348 10.13444626 24.4375 9.375 C19.7659375 8.694375 19.7659375 8.694375 15 8 C15 16.25 15 24.5 15 33 C21.93 33 28.86 33 36 33 C35.67 35.64 35.34 38.28 35 41 C28.4 41 21.8 41 15 41 C15 48.59 15 56.18 15 64 C20.135625 63.3503125 20.135625 63.3503125 25.375 62.6875 C26.96127197 62.49353638 26.96127197 62.49353638 28.57958984 62.2956543 C34.95462656 61.45633558 40.90478887 60.04540093 47 58 C50.30823887 61.30823887 48 67.32144372 48 72 C32.82 72 17.64 72 2 72 C1.93941406 67.4728125 1.87882813 62.945625 1.81640625 58.28125 C1.77587744 55.40103295 1.73508668 52.52082433 1.69335938 49.640625 C1.62725637 45.07620251 1.5620861 40.5117809 1.50268555 35.94726562 C1.4546966 32.26433677 1.40234523 28.58149267 1.34705925 24.89866638 C1.32679093 23.49859244 1.30805394 22.0984954 1.29092598 20.69837952 C1.26653441 18.72659845 1.23602822 16.75489597 1.20532227 14.78320312 C1.18977798 13.66401489 1.1742337 12.54482666 1.15821838 11.39172363 C0.98036349 7.57905257 0.4734179 3.7873432 0 0 Z " fill="#FCFCFC" transform="translate(520,1072)"/>
<path d="M0 0 C5.61 0 11.22 0 17 0 C17.70125 2.31 18.4025 4.62 19.125 7 C22.20890947 16.62153341 26.25040876 25.82472082 30.3125 35.0625 C30.63244934 35.79170654 30.95239868 36.52091309 31.28204346 37.2722168 C32.20090074 39.36168758 33.12442239 41.44900162 34.05078125 43.53515625 C34.33285934 44.17292496 34.61493744 44.81069366 34.90556335 45.4677887 C36.11817697 48.44762878 36.11817697 48.44762878 38 51 C40.28559951 45.83694938 42.54458354 40.66330195 44.78100586 35.47875977 C45.54322763 33.72148217 46.31228341 31.96715078 47.08862305 30.21606445 C51.64994139 19.91413142 55.00846916 11.40795187 55 0 C60.28 0 65.56 0 71 0 C69.61367876 4.15896373 68.22560514 7.89065992 66.41796875 11.83984375 C65.90419678 12.97075439 65.3904248 14.10166504 64.86108398 15.2668457 C64.58851776 15.86437653 64.31595154 16.46190735 64.03512573 17.07754517 C58.20828917 29.86343925 52.67295501 42.75491296 47.31518555 55.74389648 C44.74909472 61.94848106 42.11415374 68.04800831 39 74 C36.69 74 34.38 74 32 74 C31.51233154 72.88890869 31.02466309 71.77781738 30.5222168 70.63305664 C29.06707418 67.31774657 27.61180855 64.00249052 26.15649414 60.68725586 C24.50561568 56.92649348 22.85511122 53.16556725 21.20483398 49.40454102 C17.6320372 41.26331911 14.0587886 33.12237433 10.4609375 24.9921875 C9.96118408 23.86159912 9.46143066 22.73101074 8.9465332 21.56616211 C8.05371679 19.5479151 7.15915192 17.53044023 6.26245117 15.51391602 C3.99964442 10.39569565 1.90913423 5.26086184 0 0 Z " fill="#FBFBFB" transform="translate(417,1072)"/>
<path d="M0 0 C5.61 0 11.22 0 17 0 C17.49628906 1.35351562 17.99257813 2.70703125 18.50390625 4.1015625 C22.12157968 13.84689417 25.86884781 23.2956221 30.75 32.48046875 C32 35 32 35 32 37 C32.66 37 33.32 37 34 37 C34.23847656 36.22140625 34.47695313 35.4428125 34.72265625 34.640625 C36.70980815 28.97693825 39.20209913 23.53519414 41.63476562 18.05078125 C44.22157247 12.11963344 46.25089084 6.23155288 48 0 C52.95 0 57.9 0 63 0 C62.18015625 1.45664063 61.3603125 2.91328125 60.515625 4.4140625 C56.6525757 11.49783269 53.23415277 18.77387022 49.82128906 26.08154297 C48.74140867 28.39339266 47.65626966 30.70271819 46.5703125 33.01171875 C45.87469583 34.49464902 45.17937259 35.97771699 44.484375 37.4609375 C44.16353943 38.14433197 43.84270386 38.82772644 43.512146 39.53182983 C39.90168746 47.11564582 39.90168746 47.11564582 38.5859375 55.30078125 C38.54726563 56.27724609 38.50859375 57.25371094 38.46875 58.25976562 C38.42234375 59.77086914 38.42234375 59.77086914 38.375 61.3125 C38.33632813 62.33923828 38.29765625 63.36597656 38.2578125 64.42382812 C38.16385511 66.94893309 38.08085192 69.47444144 38 72 C33.71 72 29.42 72 25 72 C25.1134375 70.86691406 25.226875 69.73382812 25.34375 68.56640625 C26.17900653 51.45162754 18.69647052 38.45158165 10.98043823 23.7505188 C8.09251234 18.2423465 5.46623287 12.64767142 3 6.9375 C2.01 4.648125 1.02 2.35875 0 0 Z " fill="#FBFBFB" transform="translate(926,1072)"/>
<path d="M0 0 C1.35568336 0.00333092 1.35568336 0.00333092 2.73875427 0.00672913 C3.75973709 0.00680466 4.78071991 0.00688019 5.8326416 0.00695801 C6.94304306 0.01211929 8.05344452 0.01728058 9.19749451 0.02259827 C10.89336952 0.02472069 10.89336952 0.02472069 12.62350464 0.02688599 C16.25105891 0.03250433 19.8785525 0.04505994 23.50608826 0.05775452 C25.95856133 0.06276715 28.41103536 0.06733047 30.86351013 0.07142639 C36.89022639 0.08247972 42.91689702 0.09975664 48.94358826 0.12025452 C48.94358826 4.41025452 48.94358826 8.70025452 48.94358826 13.12025452 C47.66483826 12.83150452 46.38608826 12.54275452 45.06858826 12.24525452 C40.04176978 11.11016647 35.00276097 10.13208906 29.94358826 9.12025452 C29.94358826 29.91025452 29.94358826 50.70025452 29.94358826 72.12025452 C25.65358826 72.12025452 21.36358826 72.12025452 16.94358826 72.12025452 C16.94358826 51.33025452 16.94358826 30.54025452 16.94358826 9.12025452 C7.53858826 11.10025452 7.53858826 11.10025452 -2.05641174 13.12025452 C-3.05641174 12.12025452 -3.05641174 12.12025452 -3.18922424 9.65150452 C-3.18664612 8.65119202 -3.18406799 7.65087952 -3.18141174 6.62025452 C-3.18398987 5.61994202 -3.18656799 4.61962952 -3.18922424 3.58900452 C-3.00560038 0.17576102 -3.00560038 0.17576102 0 0 Z " fill="#FDFDFD" transform="translate(844.0564117431641,1071.8797454833984)"/>
<path d="M0 0 C1 1 1 1 1.0625 4.0625 C1.041875 5.031875 1.02125 6.00125 1 7 C-3.0489655 7.73441226 -6.99877642 8.18904301 -11.10717773 8.40136719 C-12.90745171 8.4974955 -12.90745171 8.4974955 -14.74409485 8.5955658 C-16.04412949 8.66199783 -17.34416412 8.72842987 -18.68359375 8.796875 C-20.79031496 8.90902953 -22.89695587 9.02262413 -25.00360012 9.13621426 C-26.49139159 9.21634617 -27.97920351 9.29609919 -29.46703434 9.37549686 C-100.06550142 13.14376641 -170.46532263 19.26043849 -240.59912109 28.22241211 C-241.54802719 28.34302002 -242.49693329 28.46362793 -243.47459412 28.58789062 C-245.21625223 28.81014856 -246.95755054 29.03525456 -248.69837952 29.26391602 C-252.49447016 29.7499149 -256.16252701 30.13123264 -260 30 C-260 29.34 -260 28.68 -260 28 C-244.78813264 24.83339223 -229.39200751 22.86888292 -214 20.8125 C-212.91689671 20.66735773 -212.91689671 20.66735773 -211.81191254 20.51928329 C-163.90983782 14.10332763 -115.90059204 8.78445895 -67.75 4.625 C-67.03903419 4.56356937 -66.32806839 4.50213875 -65.59555817 4.43884659 C-50.57620974 3.14455695 -35.55046439 1.93656957 -20.515625 0.8359375 C-19.36922546 0.75058746 -18.22282593 0.66523743 -17.04168701 0.57730103 C-11.34990117 0.17105014 -5.70645609 -0.19961554 0 0 Z " fill="#FAFAFA" transform="translate(426,971)"/>
<path d="M0 0 C17.10647848 0.58682784 34.1321293 1.76104041 51.1875 3.1875 C52.49924194 3.29637543 53.81098389 3.40525085 55.16247559 3.51742554 C119.80519935 8.8934241 184.24080296 16.03608259 248.39453125 25.65234375 C249.21724014 25.77488525 250.03994904 25.89742676 250.8875885 26.02368164 C254.30686602 26.54351327 257.65469694 27.12471687 261 28 C261 28.66 261 29.32 261 30 C252.6330725 29.41653056 244.32513444 28.62703751 236.00390625 27.58203125 C233.68104752 27.29689088 231.35812796 27.01224577 229.03515625 26.72802734 C227.82102051 26.57887878 226.60688477 26.42973022 225.35595703 26.27606201 C157.90327583 18.03331659 90.18327113 12.33842683 22.31835938 8.8996582 C21.25402176 8.84491837 20.18968414 8.79017853 19.09309387 8.73377991 C17.12978897 8.63358794 15.1663246 8.53645001 13.2026825 8.44309998 C8.73002279 8.21581923 4.4067365 7.86166506 0 7 C0 4.69 0 2.38 0 0 Z " fill="#FAFAFA" transform="translate(728,971)"/>
<path d="M0 0 C4.62 0 9.24 0 14 0 C15.08860427 7.89897283 15.12915059 15.69766722 15.09765625 23.66015625 C15.09578737 25.05976816 15.09436569 26.45938073 15.09336853 27.85899353 C15.08958036 31.51347716 15.0797824 35.16792 15.06866455 38.8223877 C15.05837016 42.56322681 15.05385384 46.30407263 15.04882812 50.04492188 C15.0381562 57.36330185 15.02059011 64.68163998 15 72 C10.71 72 6.42 72 2 72 C1.97494385 70.24526367 1.9498877 68.49052734 1.92407227 66.68261719 C1.83966192 60.8392449 1.75142242 54.99593693 1.66066074 49.15266037 C1.60585027 45.6151475 1.55250492 42.07762602 1.50268555 38.54003906 C1.4451437 34.45890711 1.38090984 30.37790291 1.31640625 26.296875 C1.29969376 25.04638367 1.28298126 23.79589233 1.26576233 22.50750732 C1.14036135 14.96065431 0.70676163 7.5153158 0 0 Z " fill="#FDFDFD" transform="translate(364,1072)"/>
<path d="M0 0 C4.62 0 9.24 0 14 0 C19.89412309 11.78824617 16.10821106 33.71769248 16.0625 46.5625 C16.05747261 49.03841055 16.0529119 51.51432209 16.04882812 53.99023438 C16.03792618 59.99351458 16.02073057 65.99674602 16 72 C11.71 72 7.42 72 3 72 C2.98018066 70.49397217 2.96036133 68.98794434 2.93994141 67.4362793 C2.86288595 61.75725789 2.77433809 56.07846009 2.68261719 50.3996582 C2.64473442 47.95894846 2.60981724 45.51819056 2.578125 43.07739258 C2.38800953 28.60782308 1.87434249 14.35711107 0 0 Z " fill="#FCFCFC" transform="translate(786,1072)"/>
<path d="M0 0 C1.18529297 0.02707031 1.18529297 0.02707031 2.39453125 0.0546875 C2.98621094 0.07789063 3.57789063 0.10109375 4.1875 0.125 C4.1875 1.445 4.1875 2.765 4.1875 4.125 C3.22650391 4.36283203 3.22650391 4.36283203 2.24609375 4.60546875 C-5.09354702 6.58531224 -10.79740022 8.6798294 -14.75 15.4375 C-15.100625 16.324375 -15.45125 17.21125 -15.8125 18.125 C-14.7915625 17.8775 -14.7915625 17.8775 -13.75 17.625 C-7.2435578 16.51752048 -1.57632496 16.8046627 4.1875 20.125 C8.29173175 23.71280524 11.2285885 27.69116817 12.1875 33.125 C12.2651742 39.80498141 11.17355729 44.7384361 7.1875 50.125 C0.42198521 55.37172576 -5.47167971 55.85535102 -13.8125 55.125 C-18.95588322 53.80553731 -21.87621653 51.49563757 -24.75 47.0625 C-28.61073556 40.24404838 -28.72651711 32.77657477 -27.8125 25.125 C-25.46913432 16.77324471 -21.79294038 9.73280635 -14.375 4.9375 C-13.63378906 4.44894531 -12.89257812 3.96039062 -12.12890625 3.45703125 C-8.03064752 1.1003597 -4.75313418 -0.1418846 0 0 Z M-18.6875 27.625 C-20.69923186 33.88372133 -19.98732942 39.77534116 -17.0625 45.625 C-14.69396374 48.25670696 -13.1096746 49.82146586 -9.8125 51.125 C-6.35922779 51.18666558 -3.95851165 51.13584104 -1.2890625 48.78125 C3.6168378 42.99625773 3.76993746 38.48867365 3.1875 31.125 C1.71310403 26.99669128 0.19758383 24.07585159 -3.8125 22.125 C-10.4534358 21.49252992 -14.48484935 22.02146581 -18.6875 27.625 Z " fill="#F9F9F9" transform="translate(675.8125,945.875)"/>
<path d="M0 0 C5.81762754 3.34788 8.40350674 7.81598896 10.5078125 14.12890625 C11.40483593 26.26078055 10.2613837 35.00744095 2.2578125 44.50390625 C-2.48789687 49.49238294 -8.35962974 53.8835641 -15.53515625 54.2265625 C-16.24285156 54.21496094 -16.95054687 54.20335937 -17.6796875 54.19140625 C-18.9378125 54.17078125 -20.1959375 54.15015625 -21.4921875 54.12890625 C-21.4921875 52.80890625 -21.4921875 51.48890625 -21.4921875 50.12890625 C-20.83992187 49.95875 -20.18765625 49.78859375 -19.515625 49.61328125 C-12.58073817 47.69033328 -6.897069 45.88870217 -3.1171875 39.37890625 C-2.5809375 38.30640625 -2.0446875 37.23390625 -1.4921875 36.12890625 C-2.10964844 36.23589844 -2.72710938 36.34289062 -3.36328125 36.453125 C-11.14960308 37.55529841 -17.40516432 36.63671866 -23.8671875 31.94140625 C-27.68010527 27.85613721 -29.37463563 24.25382686 -29.5859375 18.63671875 C-29.23257982 12.82398489 -27.95727531 8.81145734 -24.4921875 4.12890625 C-17.42816253 -1.34931719 -8.62214578 -3.01369672 0 0 Z M-17.4921875 6.12890625 C-21.24821805 11.30963805 -21.30436303 16.97065225 -20.4921875 23.12890625 C-19.27363243 26.64084446 -17.615785 29.2674815 -14.6171875 31.56640625 C-10.17889361 32.74124875 -7.43504647 32.60957945 -3.3046875 30.50390625 C-0.0592293 27.7632971 1.23036465 26.18668176 2.5078125 22.12890625 C2.77085783 15.49797201 1.40521355 10.47391341 -2.4921875 5.12890625 C-7.3022419 1.44119788 -13.00183107 2.48807671 -17.4921875 6.12890625 Z " fill="#F9F9F9" transform="translate(542.4921875,946.87109375)"/>
<path d="M0 0 C5.79821805 4.56455464 8.56769228 9.20379953 9.6875 16.4375 C10.51252263 25.63497449 8.20229418 33.77392514 2.9375 41.3125 C-1.86333003 46.87135582 -7.7930265 51.68057738 -15.0625 53.3125 C-17.75446104 53.45418216 -20.36285905 53.40559107 -23.0625 53.3125 C-23.0625 51.9925 -23.0625 50.6725 -23.0625 49.3125 C-22.4334375 49.16554688 -21.804375 49.01859375 -21.15625 48.8671875 C-14.81348774 47.20507811 -9.75055114 45.00055114 -5.0625 40.3125 C-3.51798805 37.64102264 -3.51798805 37.64102264 -3.0625 35.3125 C-3.619375 35.40789063 -4.17625 35.50328125 -4.75 35.6015625 C-11.85669121 36.63395345 -16.93334836 35.93725181 -23.3125 32.625 C-27.65788123 28.97092942 -29.545416 25.34390143 -30.9375 19.875 C-31.21480098 11.97192206 -29.12669702 7.74671776 -24.01171875 1.9765625 C-17.91326287 -3.2297345 -7.00975538 -3.75576915 0 0 Z M-20.0625 7.3125 C-22.68299116 11.60057644 -22.6149131 16.42709664 -22.0625 21.3125 C-20.40451006 25.93741931 -18.4203229 28.94411799 -14.0625 31.3125 C-9.13461047 31.76048996 -5.95435523 31.01855206 -2.0625 27.9375 C1.18923121 23.66960279 1.58644732 19.531118 0.9375 14.3125 C-0.38707077 9.85647116 -1.89695516 6.32468367 -5.4375 3.25 C-12.02241307 0.89824533 -15.22976364 2.36992873 -20.0625 7.3125 Z " fill="#F9F9F9" transform="translate(611.0625,947.6875)"/>
<path d="M0 0 C0 17.49 0 34.98 0 53 C-2.64 53 -5.28 53 -8 53 C-8 38.81 -8 24.62 -8 10 C-9.32 10 -10.64 10 -12 10 C-11.43351673 6.52556925 -10.35584027 5.01266113 -7.6875 2.75 C-7.09324219 2.22921875 -6.49898438 1.7084375 -5.88671875 1.171875 C-4 0 -4 0 0 0 Z " fill="#FBFBFB" transform="translate(485,947)"/>
</svg>
